<?xml version="1.0" encoding="UTF-8"?>
<svg id="_图层_1" data-name="图层_1" xmlns="http://www.w3.org/2000/svg" xmlns:xlink="http://www.w3.org/1999/xlink" viewBox="0 0 160 496.6">
  <defs>
    <style>
      .cls-1 {
        clip-path: url(#clippath-6);
      }

      .cls-2 {
        clip-path: url(#clippath-7);
      }

      .cls-3 {
        clip-path: url(#clippath-4);
      }

      .cls-4 {
        clip-path: url(#clippath-9);
      }

      .cls-5, .cls-6, .cls-7 {
        fill: none;
      }

      .cls-8 {
        fill: #b2d9ff;
      }

      .cls-9 {
        clip-path: url(#clippath-1);
      }

      .cls-10 {
        fill: #66bfff;
      }

      .cls-11 {
        clip-path: url(#clippath-5);
      }

      .cls-12 {
        clip-path: url(#clippath-8);
      }

      .cls-13 {
        clip-path: url(#clippath-3);
      }

      .cls-6 {
        stroke-linecap: round;
        stroke-linejoin: round;
      }

      .cls-6, .cls-7 {
        stroke: #000;
        stroke-width: 1.33px;
      }

      .cls-14 {
        clip-path: url(#clippath-2);
      }

      .cls-15 {
        clip-path: url(#clippath);
      }

      .cls-7 {
        stroke-miterlimit: 13.33;
      }
    </style>
    <clipPath id="clippath">
      <rect class="cls-5" x="66.98" y="481.5" width="6.34" height="6.33"/>
    </clipPath>
    <clipPath id="clippath-1">
      <rect class="cls-5" x="100.67" y="481.5" width="6.34" height="6.33"/>
    </clipPath>
    <clipPath id="clippath-2">
      <rect class="cls-5" x="24.33" y="438.83" width="6.32" height="6.33"/>
    </clipPath>
    <clipPath id="clippath-3">
      <rect class="cls-5" x="24.67" y="396.33" width="6.34" height="6"/>
    </clipPath>
    <clipPath id="clippath-4">
      <rect class="cls-5" x="20.99" y="353.5" width="6.33" height="6.33"/>
    </clipPath>
    <clipPath id="clippath-5">
      <rect class="cls-5" x="24.67" y="310.83" width="6.34" height="6.33"/>
    </clipPath>
    <clipPath id="clippath-6">
      <rect class="cls-5" x="20.99" y="268.33" width="6.33" height="6"/>
    </clipPath>
    <clipPath id="clippath-7">
      <rect class="cls-5" x="20.99" y="225.5" width="6.33" height="6.33"/>
    </clipPath>
    <clipPath id="clippath-8">
      <rect class="cls-5" x="20.99" y="182.83" width="6.33" height="6.33"/>
    </clipPath>
    <clipPath id="clippath-9">
      <rect class="cls-5" x="24.67" y="140.33" width="6.34" height="6"/>
    </clipPath>
  </defs>
  <path class="cls-6" d="M80,214.74v-9.6"/>
  <path class="cls-7" d="M80,199.8v5.33M78,205.14l2-5.33,2,5.33"/>
  <path class="cls-6" d="M.67,470.74h158.67v25.2H.67v-25.2Z"/>
  <path d="M30.5,479.75c-.39.91-1.12,1.71-2.23,2.35l.48.62c.46-.29.88-.6,1.23-.94.33.36.75.69,1.21,1-.83.4-1.88.71-3.12.92l.39.71c1.36-.31,2.5-.71,3.44-1.19.84.46,1.84.86,3,1.17l.44-.64c-1.02-.25-1.94-.59-2.73-.96.66-.48,1.19-1.04,1.52-1.69v-.58h-3.17c.11-.23.21-.44.31-.67l-.77-.1ZM31.89,482.42c-.56-.33-1.06-.71-1.48-1.1.02-.06.06-.11.1-.15h2.73c-.31.48-.77.9-1.36,1.25ZM29.5,485.65l-.33.64c1.62.31,3.16.75,4.64,1.34l.29-.69c-1.46-.56-3-.98-4.61-1.29ZM30.75,483.96l-.39.58c.89.29,1.75.67,2.58,1.19l.39-.62c-.77-.44-1.64-.83-2.58-1.14ZM36.54,478.73h-9.79v10.48h.83v-.5h8.12v.5h.84v-10.48ZM27.58,487.94v-8.44h8.12v8.44h-8.12Z"/>
  <path d="M41.37,482.21h7.06v-.81h-2.71v-3.21h-.86v3.21h-3.5v-2.86h-.88v4.4c-.04,2.58-.67,4.48-1.94,5.66l.67.59c1.02-.96,1.69-2.36,1.96-4.15h4.83v4.19h.88v-5.04h-5.58c.02-.4.04-.81.06-1.25v-.73Z"/>
  <path d="M55.79,490.52c-.58-.74-1.08-1.59-1.48-2.56-.41-.98-.6-2-.6-3.06,0-.93.15-1.82.46-2.69.34-.98.89-1.96,1.62-2.94h.75c-.47.81-.79,1.39-.94,1.73-.24.54-.43,1.1-.56,1.69-.17.74-.25,1.47-.25,2.21,0,1.88.58,3.75,1.75,5.62h-.75Z"/>
  <path d="M57.48,485.73l1.06-.14c.12.6.32,1.03.61,1.29.29.27.65.39,1.08.39.48,0,.89-.17,1.23-.5.34-.34.52-.78.52-1.29,0-.48-.16-.88-.48-1.19-.3-.32-.7-.48-1.19-.48-.21,0-.46.04-.75.12l.12-.94c.07.02.12.02.17.02.44,0,.84-.11,1.21-.36.36-.23.54-.59.54-1.08,0-.39-.14-.71-.39-.96-.27-.25-.61-.38-1.02-.38s-.74.13-1.02.39c-.27.25-.44.64-.52,1.14l-1.06-.19c.13-.71.43-1.25.88-1.64.46-.39,1.02-.58,1.71-.58.47,0,.9.1,1.29.31.4.2.71.47.91.81.21.35.31.72.31,1.1s-.1.72-.31,1.02c-.2.3-.49.55-.88.73.51.12.91.36,1.19.73.28.36.42.82.42,1.38,0,.75-.28,1.39-.83,1.92-.54.52-1.23.77-2.06.77-.75,0-1.38-.22-1.88-.67-.5-.44-.79-1.02-.86-1.75Z"/>
  <g class="cls-15">
    <path d="M70.47,484.65l2.38-2.38c.12-.14.16-.17.16-.25,0-.14-.12-.25-.25-.25-.08,0-.14.04-.25.17l-2.39,2.38-2.39-2.38c-.12-.15-.17-.17-.25-.17-.12,0-.25.11-.25.25,0,.08.06.14.16.25l2.38,2.38-2.38,2.39c-.12.11-.16.19-.16.25,0,.15.12.25.25.25.08,0,.12-.02.25-.16l2.39-2.38,2.39,2.38c.11.12.19.16.25.16.15,0,.25-.1.25-.25,0-.08-.04-.1-.16-.25l-2.38-2.39Z"/>
    <path d="M70.47,484.65l2.38-2.38c.12-.14.16-.17.16-.25,0-.14-.12-.25-.25-.25-.08,0-.14.04-.25.17l-2.39,2.38-2.39-2.38c-.12-.15-.17-.17-.25-.17-.12,0-.25.11-.25.25,0,.08.06.14.16.25l2.38,2.38-2.38,2.39c-.12.11-.16.19-.16.25,0,.15.12.25.25.25.08,0,.12-.02.25-.16l2.39-2.38,2.39,2.38c.11.12.19.16.25.16.15,0,.25-.1.25-.25,0-.08-.04-.1-.16-.25l-2.38-2.39Z"/>
  </g>
  <path d="M83.03,486.98v1.02h-5.69c0-.25.04-.49.12-.73.15-.39.38-.77.71-1.14.32-.38.78-.8,1.38-1.29.93-.78,1.55-1.39,1.88-1.83.33-.45.5-.87.5-1.27s-.16-.76-.46-1.04c-.29-.29-.68-.44-1.15-.44-.52,0-.93.16-1.23.46s-.46.73-.46,1.27l-1.08-.12c.07-.8.34-1.41.83-1.83.48-.43,1.14-.64,1.96-.64s1.46.23,1.94.69c.48.46.73,1.02.73,1.69,0,.35-.07.69-.21,1.02-.14.33-.38.69-.71,1.06-.32.36-.86.86-1.61,1.5-.64.53-1.05.89-1.23,1.08-.18.2-.33.39-.44.56h4.21Z"/>
  <path d="M89.69,486.98v1.02h-5.69c0-.25.04-.49.12-.73.15-.39.39-.77.71-1.14s.78-.8,1.38-1.29c.93-.78,1.55-1.39,1.88-1.83.34-.45.5-.87.5-1.27s-.16-.76-.46-1.04c-.29-.29-.68-.44-1.14-.44-.52,0-.93.16-1.23.46s-.46.73-.46,1.27l-1.09-.12c.07-.8.34-1.41.84-1.83.48-.43,1.13-.64,1.96-.64s1.46.23,1.94.69c.48.46.73,1.02.73,1.69,0,.35-.07.69-.21,1.02-.14.33-.38.69-.71,1.06-.32.36-.86.86-1.61,1.5-.64.53-1.05.89-1.23,1.08-.18.2-.33.39-.44.56h4.21Z"/>
  <path d="M94.2,488v-2.06h-3.73v-.96l3.92-5.56h.88v5.56h1.17v.96h-1.17v2.06h-1.06ZM94.2,484.98v-3.88l-2.69,3.88h2.69Z"/>
  <g class="cls-9">
    <path d="M104.15,484.65l2.38-2.38c.12-.14.17-.17.17-.25,0-.14-.12-.25-.25-.25-.09,0-.15.04-.25.17l-2.4,2.38-2.39-2.38c-.12-.15-.17-.17-.25-.17-.12,0-.25.11-.25.25,0,.08.06.14.17.25l2.38,2.38-2.38,2.39c-.12.11-.17.19-.17.25,0,.15.12.25.25.25.08,0,.12-.02.25-.16l2.39-2.38,2.4,2.38c.1.12.19.16.25.16.14,0,.25-.1.25-.25,0-.08-.04-.1-.17-.25l-2.38-2.39Z"/>
    <path d="M104.15,484.65l2.38-2.38c.12-.14.17-.17.17-.25,0-.14-.12-.25-.25-.25-.09,0-.15.04-.25.17l-2.4,2.38-2.39-2.38c-.12-.15-.17-.17-.25-.17-.12,0-.25.11-.25.25,0,.08.06.14.17.25l2.38,2.38-2.38,2.39c-.12.11-.17.19-.17.25,0,.15.12.25.25.25.08,0,.12-.02.25-.16l2.39-2.38,2.4,2.38c.1.12.19.16.25.16.14,0,.25-.1.25-.25,0-.08-.04-.1-.17-.25l-2.38-2.39Z"/>
  </g>
  <path d="M116.38,486.98v1.02h-5.69c0-.25.04-.49.12-.73.15-.39.39-.77.71-1.14s.78-.8,1.38-1.29c.93-.78,1.55-1.39,1.88-1.83.34-.45.5-.87.5-1.27s-.16-.76-.46-1.04c-.29-.29-.68-.44-1.14-.44-.52,0-.93.16-1.23.46s-.46.73-.46,1.27l-1.09-.12c.07-.8.34-1.41.84-1.83.48-.43,1.13-.64,1.96-.64s1.46.23,1.94.69c.48.46.73,1.02.73,1.69,0,.35-.07.69-.21,1.02-.14.33-.38.69-.71,1.06-.32.36-.86.86-1.61,1.5-.64.53-1.05.89-1.23,1.08-.18.2-.33.39-.44.56h4.21Z"/>
  <path d="M123.05,486.98v1.02h-5.69c0-.25.04-.49.12-.73.15-.39.39-.77.71-1.14.32-.38.77-.8,1.38-1.29.93-.78,1.55-1.39,1.88-1.83.33-.45.5-.87.5-1.27s-.16-.76-.46-1.04c-.29-.29-.68-.44-1.14-.44-.52,0-.93.16-1.23.46-.3.31-.46.73-.46,1.27l-1.08-.12c.07-.8.34-1.41.83-1.83.48-.43,1.14-.64,1.96-.64s1.46.23,1.94.69c.48.46.73,1.02.73,1.69,0,.35-.07.69-.21,1.02-.14.33-.38.69-.71,1.06-.32.36-.85.86-1.6,1.5-.64.53-1.05.89-1.23,1.08-.18.2-.33.39-.44.56h4.21Z"/>
  <path d="M127.55,488v-2.06h-3.73v-.96l3.92-5.56h.88v5.56h1.17v.96h-1.17v2.06h-1.06ZM127.55,484.98v-3.88l-2.69,3.88h2.69Z"/>
  <path d="M131.83,490.52h-.75c1.17-1.88,1.75-3.75,1.75-5.62,0-.73-.08-1.46-.25-2.19-.14-.58-.33-1.14-.56-1.69-.16-.34-.47-.93-.94-1.75h.75c.73.97,1.28,1.95,1.62,2.94.3.86.46,1.76.46,2.69,0,1.06-.2,2.08-.6,3.06-.41.97-.9,1.82-1.48,2.56Z"/>
  <path class="cls-8" d="M.67,453.27h158.67v-25.2H.67v25.2Z"/>
  <path class="cls-6" d="M.67,428.07h158.67v25.2H.67v-25.2Z"/>
  <path d="M13.01,445.33h-1.06v-6.73c-.25.25-.58.5-1,.75-.42.24-.79.41-1.11.52v-1.02c.59-.26,1.09-.59,1.54-.98.44-.4.75-.79.94-1.17h.69v8.62Z"/>
  <path d="M18.8,445.33h-1.06v-6.73c-.25.25-.58.5-1,.75-.41.24-.79.41-1.1.52v-1.02c.58-.26,1.09-.59,1.54-.98.45-.4.76-.79.94-1.17h.69v8.62Z"/>
  <g class="cls-14">
    <path d="M27.81,441.98l2.38-2.38c.12-.14.17-.16.17-.25,0-.14-.12-.25-.25-.25-.08,0-.14.04-.25.17l-2.39,2.38-2.4-2.38c-.12-.14-.16-.17-.25-.17-.12,0-.25.11-.25.25,0,.09.06.15.17.25l2.38,2.38-2.38,2.4c-.12.1-.17.19-.17.25,0,.14.12.25.25.25.09,0,.12-.02.25-.17l2.4-2.38,2.39,2.38c.11.12.19.17.25.17.14,0,.25-.11.25-.25,0-.09-.04-.11-.17-.25l-2.38-2.4Z"/>
    <path d="M27.81,441.98l2.38-2.38c.12-.14.17-.16.17-.25,0-.14-.12-.25-.25-.25-.08,0-.14.04-.25.17l-2.39,2.38-2.4-2.38c-.12-.14-.16-.17-.25-.17-.12,0-.25.11-.25.25,0,.09.06.15.17.25l2.38,2.38-2.38,2.4c-.12.1-.17.19-.17.25,0,.14.12.25.25.25.09,0,.12-.02.25-.17l2.4-2.38,2.39,2.38c.11.12.19.17.25.17.14,0,.25-.11.25-.25,0-.09-.04-.11-.17-.25l-2.38-2.4Z"/>
  </g>
  <path d="M38.81,445.33h-1.06v-6.73c-.25.25-.59.5-1,.75-.42.24-.79.41-1.11.52v-1.02c.58-.26,1.09-.59,1.54-.98.44-.4.75-.79.94-1.17h.69v8.62Z"/>
  <path d="M44.59,445.33h-1.06v-6.73c-.25.25-.59.5-1,.75-.42.24-.79.41-1.11.52v-1.02c.58-.26,1.09-.59,1.54-.98.44-.4.75-.79.94-1.17h.69v8.62Z"/>
  <path d="M53.26,435.69l-.77.27c.36.48.69,1.04,1,1.67l.73-.34c-.27-.56-.58-1.08-.96-1.6ZM59.16,435.69c-.29.6-.64,1.12-1.11,1.56l.69.39c.48-.48.88-1.04,1.19-1.67l-.77-.29ZM51.66,437.71v.79h3.48c-.19.41-.44.83-.71,1.21h-3.46v.79h2.86c-.84.94-1.9,1.71-3.19,2.27l.48.75c.79-.38,1.52-.83,2.17-1.36v3.27c0,.62.36.94,1.08.94h4.44c.65,0,1.06-.11,1.31-.27.25-.23.42-.81.52-1.75l-.86-.27c-.06.61-.17,1-.29,1.23-.1.16-.41.27-.91.27h-3.86c-.38,0-.56-.14-.56-.42v-2.71h3.86v.89c0,.25-.17.38-.48.38-.5,0-1.04-.02-1.64-.04l.19.75c.58.02,1.16.04,1.79.04.65-.04.98-.33,1-.89v-1.62c.61.5,1.34.98,2.19,1.44l.56-.71c-1.46-.65-2.54-1.36-3.19-2.19h2.84v-.79h-5.84c.23-.38.42-.79.62-1.21h4.54v-.79h-4.25c.21-.64.39-1.36.52-2.11l-.85-.1c-.12.79-.31,1.52-.54,2.21h-3.81ZM54.89,440.5h2.66c.27.41.61.81,1.02,1.19h-4.75c.38-.36.73-.75,1.06-1.19Z"/>
  <path d="M63.03,437.38c.58-.06,1.12-.17,1.64-.27v1.71h-1.77v.83h1.73c-.42,1.39-1.12,2.62-2.09,3.71l.36.9c.73-.94,1.31-2.02,1.77-3.19v5.41h.81v-5.48c.36.48.77,1.14,1.27,1.98l.48-.71c-.6-.75-1.16-1.42-1.75-2.02v-.61h1.48v-.83h-1.48v-1.9c.5-.12.98-.25,1.42-.41l-.31-.81c-1.06.44-2.31.71-3.73.85l.17.84ZM67.68,436.25v5.58h5.19v-5.58h-5.19ZM72.01,441.02h-3.46v-3.94h3.46v3.94ZM68.72,442.6c-.54,1.34-1.21,2.48-1.98,3.44l.73.52c.77-1.02,1.46-2.21,2.02-3.59l-.77-.38ZM71.66,442.54l-.69.44c.83,1.29,1.52,2.48,2.02,3.56l.73-.52c-.48-.98-1.17-2.14-2.06-3.48Z"/>
  <path d="M78.01,440.13v.77h6.5v-.77h-6.5ZM77.16,442.08v.79h2.62c-.83,1.35-1.54,2.19-2.06,2.5-.06.02-.11.06-.19.08l.19.73c2.27-.15,4.36-.36,6.25-.61.25.29.46.61.67.92l.69-.48c-.52-.77-1.29-1.69-2.27-2.73l-.64.4c.36.41.71.81,1.04,1.21-1.54.23-3.11.39-4.69.5.56-.5,1.21-1.36,1.94-2.52h4.6v-.79h-8.14ZM83.85,436.82v1.39h-7.06v-1.39h7.06ZM76.78,438.98h7.89v-2.98h-8.73v3.98c-.02,2.42-.44,4.38-1.27,5.9l.62.58c.98-1.81,1.48-3.98,1.48-6.48v-1Z"/>
  <path d="M92.26,447.85c-.58-.74-1.08-1.59-1.48-2.56-.41-.98-.6-2-.6-3.06,0-.93.15-1.82.46-2.69.34-.98.89-1.96,1.62-2.94h.75c-.47.81-.79,1.39-.94,1.73-.24.54-.43,1.11-.56,1.69-.17.74-.25,1.47-.25,2.21,0,1.88.58,3.75,1.75,5.62h-.75Z"/>
  <path d="M94.12,443.35l1-.1c.08.47.24.82.48,1.04.25.21.57.31.96.31.32,0,.59-.07.83-.21.25-.15.45-.36.61-.61.16-.25.3-.58.39-1,.11-.41.17-.84.17-1.29,0-.04-.01-.11-.02-.21-.21.34-.49.61-.85.81-.37.21-.76.31-1.19.31-.71,0-1.31-.25-1.81-.77-.49-.51-.73-1.19-.73-2.04s.25-1.57.77-2.1c.51-.53,1.16-.79,1.94-.79.55,0,1.06.16,1.52.46.46.29.8.72,1.04,1.27.25.55.38,1.36.38,2.41s-.12,1.98-.35,2.62c-.24.66-.59,1.16-1.06,1.5-.48.34-1.03.5-1.67.5-.67,0-1.22-.19-1.64-.56-.42-.38-.67-.89-.75-1.56ZM98.43,439.57c0-.61-.17-1.09-.5-1.44-.32-.36-.7-.54-1.15-.54-.47,0-.88.2-1.23.58-.35.38-.52.87-.52,1.48,0,.54.16.99.48,1.33.33.34.74.5,1.23.5s.9-.16,1.21-.5c.32-.34.48-.82.48-1.41Z"/>
  <path d="M106.1,438.85l-1.06.09c-.08-.42-.22-.72-.39-.92-.28-.29-.62-.44-1.04-.44-.35,0-.64.09-.89.27-.33.25-.6.61-.79,1.06-.18.46-.28,1.12-.29,1.98.25-.38.55-.65.91-.83.38-.2.76-.29,1.17-.29.71,0,1.3.26,1.79.77.5.52.75,1.18.75,2,0,.54-.12,1.05-.36,1.52-.24.46-.56.81-.96,1.06-.41.23-.87.35-1.38.35-.88,0-1.59-.32-2.15-.96-.55-.65-.83-1.72-.83-3.21,0-1.65.3-2.86.92-3.62.52-.65,1.25-.98,2.16-.98.67,0,1.21.2,1.65.58.43.38.69.9.79,1.56ZM101.79,442.54c0,.38.07.73.23,1.06.15.32.36.57.64.75.28.17.57.25.88.25.45,0,.82-.17,1.15-.52.32-.36.48-.86.48-1.48s-.16-1.06-.48-1.39c-.31-.34-.7-.52-1.19-.52s-.88.18-1.21.52c-.33.33-.5.78-.5,1.33Z"/>
  <path d="M108.28,447.85h-.75c1.17-1.88,1.75-3.75,1.75-5.62,0-.73-.08-1.46-.25-2.19-.14-.58-.33-1.14-.56-1.69-.16-.34-.47-.93-.94-1.75h.75c.73.98,1.28,1.95,1.62,2.94.3.87.46,1.76.46,2.69,0,1.06-.2,2.08-.6,3.06-.41.97-.9,1.82-1.48,2.56Z"/>
  <path d="M111.85,445.33v-1.21h1.21v1.21c0,.44-.08.8-.25,1.06-.16.28-.39.49-.73.64l-.29-.46c.22-.1.38-.25.48-.44.11-.18.17-.45.19-.81h-.61Z"/>
  <path d="M123.08,435.5v3.94h-2.25v-3h-.88v3h-1.83v.85h5.04v3.61h.86v-3.61h4.77v-.85h-4.83v-1.65h3.64v-.83h-3.64v-1.46h-.88ZM127,441.17c-1.31,3.04-4.06,4.59-8.21,4.59l.31.83c4.27-.02,7.17-1.69,8.69-5l-.79-.42ZM121,440.82c-.69,1.06-1.54,1.98-2.56,2.77l.54.71c1.04-.83,1.92-1.81,2.65-2.91l-.62-.56Z"/>
  <path d="M134.6,436v.77h6.17v-.77h-6.17ZM135.29,437.63v2.64h4.77v-2.64h-4.77ZM139.25,439.57h-3.15v-1.23h3.15v1.23ZM140.54,441.13h-5.75v5.41h.81v-.52h4.12v.52h.81v-5.41ZM135.6,445.25v-1.36h1.67v1.36h-1.67ZM138.04,445.25v-1.36h1.69v1.36h-1.69ZM135.6,443.19v-1.34h1.67v1.34h-1.67ZM138.04,441.85h1.69v1.34h-1.69v-1.34ZM133.32,444.44c.54,0,.83-.29.83-.88v-6.11h-1.54v-1.94h-.73v1.94h-1.56v7.08h.71v-6.33h.86v8.29h.73v-2.12.06h.71ZM132.6,438.21h.84v5.21c0,.21-.12.34-.36.34l-.48-.02v-5.52Z"/>
  <path d="M148.67,445.33v-2.06h-3.73v-.96l3.91-5.56h.88v5.56h1.17v.96h-1.17v2.06h-1.06ZM148.67,442.32v-3.88l-2.69,3.88h2.69Z"/>
  <path class="cls-10" d="M.67,410.6h158.67v-25.2H.67v25.2Z"/>
  <path class="cls-6" d="M.67,385.4h158.67v25.2H.67v-25.2Z"/>
  <path d="M15.15,400.4l1.06-.14c.12.6.32,1.03.61,1.29.29.27.65.4,1.08.4.48,0,.89-.17,1.23-.5.34-.34.52-.78.52-1.29,0-.48-.16-.88-.48-1.19-.3-.32-.7-.48-1.19-.48-.21,0-.46.04-.75.12l.12-.94c.07.02.12.02.17.02.44,0,.84-.12,1.21-.36.36-.23.54-.59.54-1.08,0-.39-.14-.71-.39-.96-.27-.25-.61-.38-1.02-.38s-.74.14-1.02.4c-.27.25-.44.63-.52,1.14l-1.06-.19c.13-.71.43-1.25.88-1.64.46-.39,1.02-.59,1.71-.59.47,0,.9.11,1.29.31.4.2.71.47.91.81.21.35.31.72.31,1.11s-.1.72-.31,1.02c-.2.31-.49.55-.88.73.51.11.91.36,1.19.73.28.36.42.82.42,1.38,0,.75-.28,1.39-.83,1.91-.54.52-1.23.77-2.06.77-.75,0-1.38-.22-1.88-.67-.5-.44-.79-1.03-.86-1.75Z"/>
  <g class="cls-13">
    <path d="M28.15,399.32l2.38-2.38c.12-.15.17-.17.17-.25,0-.15-.12-.25-.25-.25-.09,0-.15.04-.25.16l-2.4,2.38-2.39-2.38c-.12-.14-.17-.16-.25-.16-.12,0-.25.1-.25.25,0,.08.06.14.17.25l2.38,2.38-2.38,2.39c-.12.11-.17.19-.17.25,0,.14.12.25.25.25.08,0,.12-.02.25-.17l2.39-2.38,2.4,2.38c.1.12.19.17.25.17.14,0,.25-.11.25-.25,0-.08-.04-.11-.17-.25l-2.38-2.39Z"/>
    <path d="M28.15,399.32l2.38-2.38c.12-.15.17-.17.17-.25,0-.15-.12-.25-.25-.25-.09,0-.15.04-.25.16l-2.4,2.38-2.39-2.38c-.12-.14-.17-.16-.25-.16-.12,0-.25.1-.25.25,0,.08.06.14.17.25l2.38,2.38-2.38,2.39c-.12.11-.17.19-.17.25,0,.14.12.25.25.25.08,0,.12-.02.25-.17l2.39-2.38,2.4,2.38c.1.12.19.17.25.17.14,0,.25-.11.25-.25,0-.08-.04-.11-.17-.25l-2.38-2.39Z"/>
  </g>
  <path d="M35.16,400.4l1.06-.14c.12.6.32,1.03.61,1.29.29.27.65.4,1.08.4.48,0,.89-.17,1.23-.5.34-.34.52-.78.52-1.29,0-.48-.16-.88-.48-1.19-.3-.32-.7-.48-1.19-.48-.21,0-.46.04-.75.12l.12-.94c.07.02.12.02.17.02.44,0,.84-.12,1.21-.36.36-.23.54-.59.54-1.08,0-.39-.14-.71-.39-.96-.27-.25-.61-.38-1.02-.38s-.74.14-1.02.4c-.27.25-.44.63-.52,1.14l-1.06-.19c.13-.71.43-1.25.88-1.64.46-.39,1.02-.59,1.71-.59.47,0,.9.11,1.29.31.4.2.71.47.91.81.21.35.31.72.31,1.11s-.1.72-.31,1.02c-.2.31-.49.55-.88.73.51.11.91.36,1.19.73.28.36.42.82.42,1.38,0,.75-.28,1.39-.83,1.91-.54.52-1.23.77-2.06.77-.75,0-1.38-.22-1.88-.67-.5-.44-.79-1.03-.86-1.75Z"/>
  <path d="M45.4,397.54v.69h1.14v4.17l-1.12.04.11.75c1.69-.11,3.08-.23,4.23-.36v1.06h.83v-1.17c.23-.04.48-.08.69-.12v-.69c-.21.04-.46.09-.69.11v-3.79h5.39v-.69h-10.58ZM47.32,402.35v-1.04h2.44v.83c-.73.08-1.54.14-2.44.21ZM47.32,400.69v-.9h2.44v.9h-2.44ZM47.32,399.15v-.92h2.44v.92h-2.44ZM46.92,393.29v3.46h7.59v-3.46h-7.59ZM53.67,396.13h-5.94v-.81h5.94v.81ZM47.73,394.71v-.77h5.94v.77h-5.94ZM51.59,399.75c.25.88.69,1.66,1.36,2.35-.5.44-1.12.79-1.86,1.11l.44.67c.79-.34,1.46-.75,2.02-1.23.54.46,1.21.86,2,1.23l.44-.71c-.75-.31-1.35-.66-1.89-1.06.58-.66.98-1.46,1.21-2.39v-.67h-4.08v.71h.38ZM53.48,401.58c-.56-.54-.94-1.14-1.14-1.83h2.19c-.21.66-.56,1.29-1.04,1.83Z"/>
  <path d="M57.4,396.02v.83h4.52c-.62,2.96-2.21,5.06-4.75,6.34l.54.71c2.54-1.33,4.21-3.46,4.94-6.38.92,2.73,2.56,4.81,4.98,6.29l.54-.69c-2.46-1.46-4.12-3.56-4.96-6.27h4.73v-.83h-4.98c.08-.75.14-1.52.14-2.38v-.77h-.88v.98c-.02.75-.06,1.46-.16,2.17h-4.67Z"/>
  <path d="M74.17,402.58v-8.38h5.71v-.83h-6.59v10.08h6.69v-.88h-5.81ZM70.13,393.08l-.61.61c1,.64,1.77,1.25,2.31,1.83l.61-.62c-.62-.58-1.38-1.21-2.31-1.81ZM69.9,396.02l-.62.61c.94.62,1.64,1.21,2.19,1.77l.62-.62c-.61-.58-1.33-1.17-2.19-1.75ZM71.32,399.57c-.52,1.31-1.17,2.6-1.88,3.85l.88.4c.66-1.21,1.25-2.54,1.81-3.94l-.81-.31Z"/>
  <path d="M86.32,399.69v4.14h.79v-4.23l.65-.1c.46,1.79,1.71,3.21,3.75,4.25l.44-.73c-.92-.42-1.69-.92-2.27-1.5.69-.42,1.27-.81,1.71-1.21l-.46-.61c-.46.44-1.04.86-1.73,1.27-.36-.48-.62-1.02-.77-1.6.81-.17,1.56-.38,2.25-.65l-.39-.66c-2.08.71-4.75,1.08-7.94,1.08l.25.73c1.36,0,2.61-.06,3.73-.19ZM81.61,393.32v.69h.92v3.48c-.39.02-.77.06-1.19.11l.08.71c1.44-.1,2.79-.27,4.02-.44v.67h.77v-.77c.27-.04.54-.09.83-.12v-.67c-.27.04-.56.08-.83.14v-3.1h.83v-.69h-5.44ZM83.28,397.42v-.81h2.17v.59c-.67.08-1.4.16-2.17.23ZM83.28,396v-.69h2.17v.69h-2.17ZM83.28,394.71v-.71h2.17v.71h-2.17ZM87.86,394.83l-.52.52c.64.42,1.27.86,1.81,1.25-.54.5-1.19.88-1.89,1.11l.33.71c.83-.29,1.56-.73,2.19-1.33.52.39.98.79,1.38,1.21l.56-.56c-.42-.39-.89-.79-1.44-1.21.48-.61.92-1.33,1.25-2.21v-.62h-4.12v.73h3.25c-.29.61-.61,1.17-1,1.65-.54-.42-1.14-.81-1.79-1.23ZM84.19,399.96c-.34.29-.71.52-1.11.75-.48.23-.98.42-1.56.56l.42.67c.69-.25,1.27-.48,1.71-.73.39-.23.79-.5,1.19-.86l-.64-.39ZM85.13,401.27c-.46.38-.94.71-1.46.98-.6.31-1.25.56-2,.75l.42.69c.89-.31,1.61-.61,2.17-.92.5-.29,1.02-.64,1.52-1.11l-.64-.39Z"/>
  <path d="M96.57,397.46v.77h6.5v-.77h-6.5ZM95.71,399.42v.79h2.62c-.83,1.36-1.54,2.19-2.06,2.5-.06.02-.11.06-.19.08l.19.73c2.27-.14,4.36-.36,6.25-.61.25.29.46.61.67.92l.69-.48c-.52-.77-1.29-1.69-2.27-2.73l-.64.39c.36.42.71.81,1.04,1.21-1.54.23-3.11.4-4.69.5.56-.5,1.21-1.35,1.94-2.52h4.6v-.79h-8.14ZM102.4,394.15v1.39h-7.06v-1.39h7.06ZM95.34,396.32h7.89v-2.98h-8.73v3.98c-.02,2.41-.44,4.38-1.27,5.89l.62.58c.98-1.81,1.48-3.98,1.48-6.48v-1Z"/>
  <path d="M105.73,402.67v-1.21h1.21v1.21c0,.45-.09.8-.25,1.06-.16.28-.4.49-.73.65l-.29-.46c.22-.1.38-.24.48-.44.11-.18.17-.45.19-.81h-.61Z"/>
  <path d="M116.96,392.83v3.94h-2.25v-3h-.88v3h-1.83v.86h5.04v3.6h.85v-3.6h4.77v-.86h-4.84v-1.64h3.65v-.84h-3.65v-1.46h-.88ZM120.88,398.5c-1.31,3.04-4.06,4.58-8.21,4.58l.31.83c4.27-.02,7.16-1.69,8.69-5l-.79-.41ZM114.88,398.15c-.69,1.06-1.54,1.98-2.56,2.77l.54.71c1.04-.84,1.91-1.81,2.64-2.92l-.62-.56Z"/>
  <path d="M128.49,393.33v.77h6.16v-.77h-6.16ZM129.17,394.96v2.64h4.77v-2.64h-4.77ZM133.13,396.9h-3.14v-1.23h3.14v1.23ZM134.42,398.46h-5.75v5.42h.81v-.52h4.12v.52h.81v-5.42ZM129.49,402.58v-1.36h1.66v1.36h-1.66ZM131.92,402.58v-1.36h1.69v1.36h-1.69ZM129.49,400.52v-1.33h1.66v1.33h-1.66ZM131.92,399.19h1.69v1.33h-1.69v-1.33ZM127.19,401.77c.54,0,.83-.29.83-.88v-6.11h-1.54v-1.94h-.73v1.94h-1.56v7.09h.71v-6.34h.86v8.29h.73v-2.12.06h.71ZM126.49,395.54h.83v5.21c0,.21-.12.33-.36.33l-.48-.02v-5.52Z"/>
  <path d="M144.71,401.65v1.02h-5.69c0-.25.04-.49.12-.73.15-.39.39-.77.71-1.15.32-.38.77-.8,1.38-1.29.93-.78,1.55-1.39,1.88-1.84.33-.44.5-.86.5-1.27s-.16-.76-.46-1.04c-.29-.29-.68-.44-1.14-.44-.52,0-.93.16-1.23.46s-.46.73-.46,1.27l-1.08-.12c.07-.8.34-1.42.83-1.83.48-.43,1.14-.65,1.96-.65s1.46.23,1.94.69c.48.46.73,1.02.73,1.69,0,.35-.07.69-.21,1.02-.14.33-.38.69-.71,1.06-.32.36-.85.86-1.6,1.5-.64.53-1.05.89-1.23,1.08-.18.2-.33.39-.44.56h4.21Z"/>
  <path class="cls-8" d="M.67,367.93h158.67v-25.2H.67v25.2Z"/>
  <path class="cls-6" d="M.67,342.74h158.67v25.2H.67v-25.2Z"/>
  <path d="M11.48,357.75l1.1-.11c.09.54.27.95.56,1.23.3.27.67.39,1.09.39.51,0,.94-.19,1.29-.56.36-.39.54-.89.54-1.52s-.18-1.09-.52-1.44c-.34-.34-.77-.52-1.31-.52-.35,0-.66.09-.94.25-.27.16-.48.35-.65.59l-.98-.12.83-4.42h4.27v1.02h-3.44l-.46,2.29c.51-.34,1.05-.52,1.62-.52.75,0,1.38.26,1.89.77.51.52.77,1.18.77,2s-.23,1.45-.67,2.02c-.56.7-1.31,1.04-2.27,1.04-.78,0-1.42-.21-1.92-.64-.49-.45-.77-1.03-.83-1.75Z"/>
  <g class="cls-3">
    <path d="M24.47,356.65l2.38-2.38c.12-.14.17-.17.17-.25,0-.14-.12-.25-.25-.25-.09,0-.15.04-.25.17l-2.4,2.38-2.39-2.38c-.12-.15-.17-.17-.25-.17-.12,0-.25.11-.25.25,0,.08.06.14.17.25l2.38,2.38-2.38,2.39c-.12.11-.17.19-.17.25,0,.15.12.25.25.25.08,0,.12-.02.25-.16l2.39-2.38,2.4,2.38c.1.12.19.16.25.16.14,0,.25-.1.25-.25,0-.08-.04-.1-.17-.25l-2.38-2.39Z"/>
    <path d="M24.47,356.65l2.38-2.38c.12-.14.17-.17.17-.25,0-.14-.12-.25-.25-.25-.09,0-.15.04-.25.17l-2.4,2.38-2.39-2.38c-.12-.15-.17-.17-.25-.17-.12,0-.25.11-.25.25,0,.08.06.14.17.25l2.38,2.38-2.38,2.39c-.12.11-.17.19-.17.25,0,.15.12.25.25.25.08,0,.12-.02.25-.16l2.39-2.38,2.4,2.38c.1.12.19.16.25.16.14,0,.25-.1.25-.25,0-.08-.04-.1-.17-.25l-2.38-2.39Z"/>
  </g>
  <path d="M31.49,357.75l1.1-.11c.09.54.27.95.56,1.23.3.27.67.39,1.09.39.51,0,.94-.19,1.29-.56.36-.39.54-.89.54-1.52s-.18-1.09-.52-1.44c-.34-.34-.77-.52-1.31-.52-.35,0-.66.09-.94.25-.27.16-.48.35-.65.59l-.98-.12.83-4.42h4.27v1.02h-3.44l-.46,2.29c.51-.34,1.05-.52,1.62-.52.75,0,1.38.26,1.89.77.51.52.77,1.18.77,2s-.23,1.45-.67,2.02c-.56.7-1.31,1.04-2.27,1.04-.78,0-1.42-.21-1.92-.64-.49-.45-.77-1.03-.83-1.75Z"/>
  <path d="M44.14,350.35l-.77.27c.35.48.69,1.04,1,1.66l.73-.33c-.27-.56-.58-1.08-.96-1.61ZM50.04,350.35c-.29.61-.64,1.12-1.1,1.56l.69.4c.48-.48.88-1.04,1.19-1.67l-.77-.29ZM42.54,352.38v.79h3.48c-.19.42-.44.84-.71,1.21h-3.46v.79h2.86c-.83.94-1.89,1.71-3.19,2.27l.48.75c.79-.38,1.52-.84,2.16-1.36v3.27c0,.62.36.94,1.09.94h4.44c.64,0,1.06-.1,1.31-.27.25-.23.41-.81.52-1.75l-.86-.27c-.06.6-.16,1-.29,1.23-.11.17-.42.27-.92.27h-3.86c-.38,0-.56-.15-.56-.42v-2.71h3.86v.89c0,.25-.17.38-.48.38-.5,0-1.04-.02-1.64-.04l.19.75c.58.02,1.17.04,1.79.04.64-.04.98-.33,1-.89v-1.62c.6.5,1.33.98,2.19,1.44l.56-.71c-1.46-.64-2.54-1.35-3.19-2.19h2.83v-.79h-5.83c.23-.38.41-.79.62-1.21h4.54v-.79h-4.25c.21-.65.4-1.36.52-2.11l-.86-.11c-.12.79-.31,1.52-.54,2.21h-3.81ZM45.77,355.17h2.67c.27.42.6.81,1.02,1.19h-4.75c.38-.35.73-.75,1.06-1.19Z"/>
  <path d="M53.91,352.04c.59-.06,1.12-.16,1.65-.27v1.71h-1.77v.84h1.73c-.42,1.39-1.12,2.62-2.08,3.71l.35.89c.73-.94,1.31-2.02,1.77-3.19v5.42h.81v-5.48c.35.48.77,1.15,1.27,1.98l.48-.71c-.61-.75-1.17-1.42-1.75-2.02v-.6h1.48v-.84h-1.48v-1.89c.5-.12.98-.25,1.41-.42l-.31-.81c-1.06.44-2.31.71-3.73.86l.16.83ZM58.56,350.92v5.59h5.19v-5.59h-5.19ZM62.89,355.69h-3.46v-3.94h3.46v3.94ZM59.6,357.27c-.54,1.33-1.21,2.48-1.98,3.44l.73.52c.77-1.02,1.46-2.21,2.02-3.58l-.77-.38ZM62.54,357.21l-.69.44c.84,1.29,1.52,2.48,2.02,3.56l.73-.52c-.48-.98-1.16-2.15-2.06-3.48Z"/>
  <path d="M68.89,354.79v.77h6.5v-.77h-6.5ZM68.04,356.75v.79h2.62c-.83,1.36-1.54,2.19-2.06,2.5-.06.02-.1.06-.19.09l.19.73c2.27-.14,4.36-.35,6.25-.6.25.29.46.6.67.91l.69-.48c-.52-.77-1.29-1.69-2.27-2.73l-.65.39c.36.42.71.81,1.04,1.21-1.54.23-3.11.39-4.69.5.56-.5,1.21-1.36,1.94-2.52h4.61v-.79h-8.15ZM74.73,351.48v1.4h-7.06v-1.4h7.06ZM67.66,353.65h7.9v-2.98h-8.73v3.98c-.02,2.42-.44,4.38-1.27,5.89l.62.59c.98-1.81,1.48-3.98,1.48-6.48v-1Z"/>
  <path d="M83.14,362.52c-.58-.74-1.08-1.59-1.48-2.56-.41-.98-.6-2-.6-3.06,0-.93.15-1.82.46-2.69.34-.98.89-1.96,1.62-2.94h.75c-.47.81-.79,1.39-.94,1.73-.24.54-.43,1.1-.56,1.69-.17.74-.25,1.47-.25,2.21,0,1.88.58,3.75,1.75,5.62h-.75Z"/>
  <path d="M90.37,358.98v1.02h-5.69c0-.25.04-.49.12-.73.15-.39.38-.77.71-1.14.32-.38.78-.8,1.38-1.29.93-.78,1.55-1.39,1.88-1.83.33-.45.5-.87.5-1.27s-.16-.76-.46-1.04c-.29-.29-.68-.44-1.15-.44-.52,0-.93.16-1.23.46s-.46.73-.46,1.27l-1.08-.12c.07-.8.34-1.41.83-1.83.48-.43,1.14-.64,1.96-.64s1.46.23,1.94.69c.48.46.73,1.02.73,1.69,0,.35-.07.69-.21,1.02-.14.33-.38.69-.71,1.06-.32.36-.86.86-1.61,1.5-.64.53-1.05.89-1.23,1.08-.18.2-.33.39-.44.56h4.21Z"/>
  <path d="M91.5,357.75l1.1-.11c.09.54.27.95.56,1.23.3.27.67.39,1.09.39.51,0,.94-.19,1.29-.56.36-.39.54-.89.54-1.52s-.18-1.09-.52-1.44c-.34-.34-.77-.52-1.31-.52-.35,0-.66.09-.94.25-.27.16-.48.35-.65.59l-.98-.12.83-4.42h4.27v1.02h-3.44l-.46,2.29c.51-.34,1.05-.52,1.62-.52.75,0,1.38.26,1.89.77.51.52.77,1.18.77,2s-.23,1.45-.67,2.02c-.56.7-1.31,1.04-2.27,1.04-.78,0-1.42-.21-1.92-.64-.49-.45-.77-1.03-.83-1.75Z"/>
  <path d="M103.65,353.52l-1.06.08c-.08-.41-.22-.72-.39-.91-.28-.29-.62-.44-1.04-.44-.35,0-.64.09-.89.27-.34.25-.6.61-.79,1.06-.18.46-.28,1.12-.29,1.98.25-.38.55-.65.92-.84.38-.19.76-.29,1.17-.29.71,0,1.3.26,1.79.77.5.52.75,1.18.75,2,0,.54-.12,1.05-.35,1.52-.24.46-.56.81-.96,1.06-.41.23-.86.36-1.38.36-.88,0-1.59-.32-2.14-.96-.56-.65-.83-1.72-.83-3.21,0-1.65.3-2.86.91-3.62.53-.65,1.25-.98,2.17-.98.67,0,1.21.2,1.64.58.43.38.7.89.79,1.56ZM99.34,357.21c0,.38.07.73.23,1.06.15.32.36.57.64.75.28.17.57.25.88.25.44,0,.82-.17,1.14-.52.32-.36.48-.86.48-1.48s-.16-1.06-.48-1.39c-.3-.34-.7-.52-1.19-.52s-.88.18-1.21.52c-.33.33-.5.78-.5,1.33Z"/>
  <path d="M105.83,362.52h-.75c1.16-1.88,1.75-3.75,1.75-5.62,0-.73-.09-1.46-.25-2.19-.14-.58-.33-1.14-.56-1.69-.16-.34-.47-.93-.94-1.75h.75c.73.97,1.27,1.95,1.62,2.94.3.86.46,1.76.46,2.69,0,1.06-.2,2.08-.61,3.06-.41.97-.89,1.82-1.48,2.56Z"/>
  <path d="M109.41,360v-1.21h1.21v1.21c0,.44-.08.8-.25,1.06-.16.27-.39.49-.73.64l-.29-.46c.22-.1.38-.25.48-.44.11-.18.17-.45.19-.81h-.61Z"/>
  <path d="M119.39,351.08v.75h2.98c-.04.25-.08.52-.12.79h-2.14v5.54h-1.12v.77h7.61v-.77h-1.11v-5.54h-2.42c.04-.25.09-.52.12-.79h2.98v-.75h-2.88c.02-.27.06-.52.08-.81l-.83-.12c-.04.31-.06.62-.08.94h-3.06ZM120.91,358.17v-.79h3.75v.79h-3.75ZM120.91,356.75v-.73h3.75v.73h-3.75ZM120.91,355.4v-.73h3.75v.73h-3.75ZM120.91,354.07v-.75h3.75v.75h-3.75ZM124.12,359.1l-.54.48c.81.48,1.6,1.02,2.31,1.67l.54-.61c-.73-.61-1.5-1.11-2.31-1.54ZM121.45,359.08c-.69.58-1.52,1.08-2.52,1.52l.52.65c1.02-.48,1.89-1.02,2.58-1.65l-.58-.52ZM115.62,353.15v.81h1.34v4c-.48.11-.96.21-1.44.31l.23.83c1.15-.27,2.25-.62,3.25-1.02v-.86c-.39.17-.79.31-1.21.46v-3.73h1.23v-.81h-1.23v-2.89h-.83v2.89h-1.34Z"/>
  <path d="M132.99,350.15l-.91.14c.25.42.46.86.64,1.34h-4.64v.81h3.44c-.98,1.44-1.77,2.33-2.36,2.66-.06.02-.12.04-.21.06l.21.79c2.48-.12,4.79-.31,6.92-.54.31.44.58.88.83,1.31l.73-.5c-.56-.91-1.36-1.98-2.38-3.21l-.69.44c.35.42.69.83,1,1.27-1.75.19-3.52.34-5.27.44.61-.54,1.31-1.46,2.11-2.73h5.54v-.81h-4.36c-.21-.56-.39-1.04-.61-1.48ZM130.93,356.4c-.06,1.23-.33,2.12-.79,2.67-.46.56-1.25,1.04-2.36,1.44l.54.69c1.23-.5,2.08-1.09,2.6-1.75.48-.65.77-1.65.86-3.04h-.86ZM136.78,361c.44,0,.77-.11,1-.31.25-.25.42-.98.54-2.21l-.79-.23c-.06,1-.21,1.6-.39,1.77-.15.11-.36.17-.59.17h-1.39c-.42,0-.62-.19-.62-.54v-3.39h-.86v3.54c0,.81.42,1.21,1.25,1.21h1.86Z"/>
  <path d="M148.39,358.98v1.02h-5.69c0-.25.04-.49.12-.73.15-.39.38-.77.71-1.14.32-.38.78-.8,1.38-1.29.93-.78,1.55-1.39,1.88-1.83.33-.45.5-.87.5-1.27s-.16-.76-.46-1.04c-.29-.29-.68-.44-1.15-.44-.52,0-.93.16-1.23.46s-.46.73-.46,1.27l-1.08-.12c.07-.8.34-1.41.83-1.83.48-.43,1.14-.64,1.96-.64s1.46.23,1.94.69c.48.46.73,1.02.73,1.69,0,.35-.07.69-.21,1.02-.14.33-.38.69-.71,1.06-.32.36-.86.86-1.61,1.5-.64.53-1.05.89-1.23,1.08-.18.2-.33.39-.44.56h4.21Z"/>
  <path class="cls-10" d="M.67,325.27h158.67v-25.2H.67v25.2Z"/>
  <path class="cls-6" d="M.67,300.07h158.67v25.2H.67v-25.2Z"/>
  <path d="M15.15,315.07l1.06-.15c.12.6.32,1.03.61,1.29.29.27.65.39,1.08.39.48,0,.89-.16,1.23-.5s.52-.77.52-1.29c0-.48-.16-.88-.48-1.19-.3-.32-.7-.48-1.19-.48-.21,0-.46.04-.75.12l.12-.94c.07.02.12.02.17.02.44,0,.84-.11,1.21-.35.36-.23.54-.59.54-1.09,0-.38-.14-.71-.39-.96-.27-.25-.61-.38-1.02-.38s-.74.14-1.02.39c-.27.25-.44.64-.52,1.15l-1.06-.19c.13-.71.43-1.26.88-1.65.46-.38,1.02-.58,1.71-.58.47,0,.9.11,1.29.31.4.2.71.47.91.81.21.35.31.72.31,1.11s-.1.72-.31,1.02c-.2.31-.49.55-.88.73.51.11.91.35,1.19.73.28.37.42.82.42,1.38,0,.75-.28,1.39-.83,1.92-.54.52-1.23.77-2.06.77-.75,0-1.38-.22-1.88-.66s-.79-1.03-.86-1.75Z"/>
  <g class="cls-11">
    <path d="M28.15,313.98l2.38-2.38c.12-.14.17-.16.17-.25,0-.14-.12-.25-.25-.25-.09,0-.15.04-.25.17l-2.4,2.38-2.39-2.38c-.12-.14-.17-.17-.25-.17-.12,0-.25.11-.25.25,0,.09.06.15.17.25l2.38,2.38-2.38,2.4c-.12.1-.17.19-.17.25,0,.14.12.25.25.25.08,0,.12-.02.25-.17l2.39-2.38,2.4,2.38c.1.12.19.17.25.17.14,0,.25-.11.25-.25,0-.09-.04-.11-.17-.25l-2.38-2.4Z"/>
    <path d="M28.15,313.98l2.38-2.38c.12-.14.17-.16.17-.25,0-.14-.12-.25-.25-.25-.09,0-.15.04-.25.17l-2.4,2.38-2.39-2.38c-.12-.14-.17-.17-.25-.17-.12,0-.25.11-.25.25,0,.09.06.15.17.25l2.38,2.38-2.38,2.4c-.12.1-.17.19-.17.25,0,.14.12.25.25.25.08,0,.12-.02.25-.17l2.39-2.38,2.4,2.38c.1.12.19.17.25.17.14,0,.25-.11.25-.25,0-.09-.04-.11-.17-.25l-2.38-2.4Z"/>
  </g>
  <path d="M35.16,315.07l1.06-.15c.12.6.32,1.03.61,1.29.29.27.65.39,1.08.39.48,0,.89-.16,1.23-.5s.52-.77.52-1.29c0-.48-.16-.88-.48-1.19-.3-.32-.7-.48-1.19-.48-.21,0-.46.04-.75.12l.12-.94c.07.02.12.02.17.02.44,0,.84-.11,1.21-.35.36-.23.54-.59.54-1.09,0-.38-.14-.71-.39-.96-.27-.25-.61-.38-1.02-.38s-.74.14-1.02.39c-.27.25-.44.64-.52,1.15l-1.06-.19c.13-.71.43-1.26.88-1.65.46-.38,1.02-.58,1.71-.58.47,0,.9.11,1.29.31.4.2.71.47.91.81.21.35.31.72.31,1.11s-.1.72-.31,1.02c-.2.31-.49.55-.88.73.51.11.91.35,1.19.73.28.37.42.82.42,1.38,0,.75-.28,1.39-.83,1.92-.54.52-1.23.77-2.06.77-.75,0-1.38-.22-1.88-.66s-.79-1.03-.86-1.75Z"/>
  <path d="M45.4,312.21v.69h1.14v4.17l-1.12.04.11.75c1.69-.1,3.08-.23,4.23-.35v1.06h.83v-1.17c.23-.04.48-.08.69-.12v-.69c-.21.04-.46.08-.69.11v-3.79h5.39v-.69h-10.58ZM47.32,317.02v-1.04h2.44v.84c-.73.08-1.54.14-2.44.21ZM47.32,315.35v-.89h2.44v.89h-2.44ZM47.32,313.82v-.92h2.44v.92h-2.44ZM46.92,307.96v3.46h7.59v-3.46h-7.59ZM53.67,310.79h-5.94v-.81h5.94v.81ZM47.73,309.38v-.77h5.94v.77h-5.94ZM51.59,314.42c.25.88.69,1.67,1.36,2.36-.5.44-1.12.79-1.86,1.11l.44.66c.79-.33,1.46-.75,2.02-1.23.54.46,1.21.85,2,1.23l.44-.71c-.75-.31-1.35-.67-1.89-1.06.58-.67.98-1.46,1.21-2.39v-.67h-4.08v.71h.38ZM53.48,316.25c-.56-.54-.94-1.15-1.14-1.84h2.19c-.21.67-.56,1.29-1.04,1.84Z"/>
  <path d="M57.4,310.69v.83h4.52c-.62,2.96-2.21,5.06-4.75,6.33l.54.71c2.54-1.34,4.21-3.46,4.94-6.38.92,2.73,2.56,4.81,4.98,6.29l.54-.69c-2.46-1.46-4.12-3.56-4.96-6.27h4.73v-.83h-4.98c.08-.75.14-1.52.14-2.38v-.77h-.88v.98c-.02.75-.06,1.46-.16,2.17h-4.67Z"/>
  <path d="M74.17,317.25v-8.38h5.71v-.84h-6.59v10.09h6.69v-.88h-5.81ZM70.13,307.75l-.61.6c1,.65,1.77,1.25,2.31,1.84l.61-.62c-.62-.59-1.38-1.21-2.31-1.81ZM69.9,310.69l-.62.6c.94.62,1.64,1.21,2.19,1.77l.62-.62c-.61-.59-1.33-1.17-2.19-1.75ZM71.32,314.23c-.52,1.31-1.17,2.61-1.88,3.86l.88.39c.66-1.21,1.25-2.54,1.81-3.94l-.81-.31Z"/>
  <path d="M86.32,314.35v4.15h.79v-4.23l.65-.11c.46,1.79,1.71,3.21,3.75,4.25l.44-.73c-.92-.42-1.69-.92-2.27-1.5.69-.42,1.27-.81,1.71-1.21l-.46-.6c-.46.44-1.04.85-1.73,1.27-.36-.48-.62-1.02-.77-1.61.81-.16,1.56-.38,2.25-.64l-.39-.67c-2.08.71-4.75,1.09-7.94,1.09l.25.73c1.36,0,2.61-.06,3.73-.19ZM81.61,307.98v.69h.92v3.48c-.39.02-.77.06-1.19.11l.08.71c1.44-.11,2.79-.27,4.02-.44v.67h.77v-.77c.27-.04.54-.08.83-.12v-.66c-.27.04-.56.08-.83.14v-3.11h.83v-.69h-5.44ZM83.28,312.08v-.81h2.17v.58c-.67.09-1.4.17-2.17.23ZM83.28,310.67v-.69h2.17v.69h-2.17ZM83.28,309.38v-.71h2.17v.71h-2.17ZM87.86,309.5l-.52.52c.64.42,1.27.86,1.81,1.25-.54.5-1.19.88-1.89,1.11l.33.71c.83-.29,1.56-.73,2.19-1.33.52.39.98.79,1.38,1.21l.56-.56c-.42-.39-.89-.79-1.44-1.21.48-.61.92-1.34,1.25-2.21v-.62h-4.12v.73h3.25c-.29.61-.61,1.17-1,1.64-.54-.41-1.14-.81-1.79-1.23ZM84.19,314.63c-.34.29-.71.52-1.11.75-.48.23-.98.41-1.56.56l.42.66c.69-.25,1.27-.48,1.71-.73.39-.23.79-.5,1.19-.86l-.64-.39ZM85.13,315.94c-.46.38-.94.71-1.46.98-.6.31-1.25.56-2,.75l.42.69c.89-.31,1.61-.6,2.17-.91.5-.29,1.02-.65,1.52-1.11l-.64-.39Z"/>
  <path d="M96.57,312.13v.77h6.5v-.77h-6.5ZM95.71,314.08v.79h2.62c-.83,1.35-1.54,2.19-2.06,2.5-.06.02-.11.06-.19.08l.19.73c2.27-.15,4.36-.36,6.25-.61.25.29.46.61.67.92l.69-.48c-.52-.77-1.29-1.69-2.27-2.73l-.64.4c.36.41.71.81,1.04,1.21-1.54.23-3.11.39-4.69.5.56-.5,1.21-1.36,1.94-2.52h4.6v-.79h-8.14ZM102.4,308.82v1.39h-7.06v-1.39h7.06ZM95.34,310.98h7.89v-2.98h-8.73v3.98c-.02,2.42-.44,4.38-1.27,5.9l.62.58c.98-1.81,1.48-3.98,1.48-6.48v-1Z"/>
  <path d="M105.73,317.33v-1.21h1.21v1.21c0,.44-.09.8-.25,1.06-.16.28-.4.49-.73.64l-.29-.46c.22-.1.38-.25.48-.44.11-.18.17-.45.19-.81h-.61Z"/>
  <path d="M116.96,307.5v3.94h-2.25v-3h-.88v3h-1.83v.85h5.04v3.61h.85v-3.61h4.77v-.85h-4.84v-1.65h3.65v-.83h-3.65v-1.46h-.88ZM120.88,313.17c-1.31,3.04-4.06,4.59-8.21,4.59l.31.83c4.27-.02,7.16-1.69,8.69-5l-.79-.42ZM114.88,312.82c-.69,1.06-1.54,1.98-2.56,2.77l.54.71c1.04-.83,1.91-1.81,2.64-2.91l-.62-.56Z"/>
  <path d="M128.49,308v.77h6.16v-.77h-6.16ZM129.17,309.63v2.64h4.77v-2.64h-4.77ZM133.13,311.57h-3.14v-1.23h3.14v1.23ZM134.42,313.13h-5.75v5.41h.81v-.52h4.12v.52h.81v-5.41ZM129.49,317.25v-1.36h1.66v1.36h-1.66ZM131.92,317.25v-1.36h1.69v1.36h-1.69ZM129.49,315.19v-1.34h1.66v1.34h-1.66ZM131.92,313.85h1.69v1.34h-1.69v-1.34ZM127.19,316.44c.54,0,.83-.29.83-.88v-6.11h-1.54v-1.94h-.73v1.94h-1.56v7.08h.71v-6.33h.86v8.29h.73v-2.12.06h.71ZM126.49,310.21h.83v5.21c0,.21-.12.34-.36.34l-.48-.02v-5.52Z"/>
  <path d="M144.71,316.32v1.02h-5.69c0-.25.04-.49.12-.73.15-.38.39-.77.71-1.14.32-.38.77-.8,1.38-1.29.93-.77,1.55-1.38,1.88-1.83.33-.44.5-.86.5-1.27s-.16-.76-.46-1.04c-.29-.29-.68-.44-1.14-.44-.52,0-.93.16-1.23.46-.3.31-.46.73-.46,1.27l-1.08-.12c.07-.8.34-1.42.83-1.84.48-.43,1.14-.64,1.96-.64s1.46.23,1.94.69c.48.46.73,1.02.73,1.69,0,.35-.07.69-.21,1.02-.14.34-.38.69-.71,1.06-.32.37-.85.87-1.6,1.5-.64.53-1.05.89-1.23,1.09-.18.2-.33.38-.44.56h4.21Z"/>
  <path class="cls-8" d="M.67,282.6h158.67v-25.2H.67v25.2Z"/>
  <path class="cls-6" d="M.67,257.4h158.67v25.2H.67v-25.2Z"/>
  <path d="M11.48,272.4l1.06-.14c.12.6.32,1.03.6,1.29.29.27.65.4,1.09.4.48,0,.89-.17,1.23-.5s.52-.78.52-1.29c0-.48-.16-.88-.48-1.19-.31-.32-.7-.48-1.19-.48-.21,0-.46.04-.75.12l.12-.94c.07.02.12.02.17.02.44,0,.84-.12,1.21-.36.36-.23.54-.59.54-1.08,0-.39-.14-.71-.4-.96-.27-.25-.6-.38-1.02-.38s-.75.14-1.02.4c-.27.25-.44.63-.52,1.14l-1.06-.19c.14-.71.43-1.25.88-1.64.46-.39,1.03-.59,1.71-.59.47,0,.9.11,1.29.31.4.2.71.47.92.81.21.35.31.72.31,1.11s-.11.72-.31,1.02c-.2.31-.49.55-.88.73.51.11.91.36,1.19.73.28.36.42.82.42,1.38,0,.75-.28,1.39-.84,1.91-.54.52-1.23.77-2.06.77-.75,0-1.38-.22-1.88-.67-.5-.44-.79-1.03-.85-1.75Z"/>
  <g class="cls-1">
    <path d="M24.47,271.32l2.38-2.38c.12-.15.17-.17.17-.25,0-.15-.12-.25-.25-.25-.09,0-.15.04-.25.16l-2.4,2.38-2.39-2.38c-.12-.14-.17-.16-.25-.16-.12,0-.25.1-.25.25,0,.08.06.14.17.25l2.38,2.38-2.38,2.39c-.12.11-.17.19-.17.25,0,.14.12.25.25.25.08,0,.12-.02.25-.17l2.39-2.38,2.4,2.38c.1.12.19.17.25.17.14,0,.25-.11.25-.25,0-.08-.04-.11-.17-.25l-2.38-2.39Z"/>
    <path d="M24.47,271.32l2.38-2.38c.12-.15.17-.17.17-.25,0-.15-.12-.25-.25-.25-.09,0-.15.04-.25.16l-2.4,2.38-2.39-2.38c-.12-.14-.17-.16-.25-.16-.12,0-.25.1-.25.25,0,.08.06.14.17.25l2.38,2.38-2.38,2.39c-.12.11-.17.19-.17.25,0,.14.12.25.25.25.08,0,.12-.02.25-.17l2.39-2.38,2.4,2.38c.1.12.19.17.25.17.14,0,.25-.11.25-.25,0-.08-.04-.11-.17-.25l-2.38-2.39Z"/>
  </g>
  <path d="M31.49,272.4l1.06-.14c.12.6.32,1.03.6,1.29.29.27.65.4,1.09.4.48,0,.89-.17,1.23-.5s.52-.78.52-1.29c0-.48-.16-.88-.48-1.19-.31-.32-.7-.48-1.19-.48-.21,0-.46.04-.75.12l.12-.94c.07.02.12.02.17.02.44,0,.84-.12,1.21-.36.36-.23.54-.59.54-1.08,0-.39-.14-.71-.4-.96-.27-.25-.6-.38-1.02-.38s-.75.14-1.02.4c-.27.25-.44.63-.52,1.14l-1.06-.19c.14-.71.43-1.25.88-1.64.46-.39,1.03-.59,1.71-.59.47,0,.9.11,1.29.31.4.2.71.47.92.81.21.35.31.72.31,1.11s-.11.72-.31,1.02c-.2.31-.49.55-.88.73.51.11.91.36,1.19.73.28.36.42.82.42,1.38,0,.75-.28,1.39-.84,1.91-.54.52-1.23.77-2.06.77-.75,0-1.38-.22-1.88-.67-.5-.44-.79-1.03-.85-1.75Z"/>
  <path d="M44.14,265.02l-.77.27c.35.48.69,1.04,1,1.67l.73-.33c-.27-.56-.58-1.09-.96-1.61ZM50.04,265.02c-.29.61-.64,1.12-1.1,1.56l.69.39c.48-.48.88-1.04,1.19-1.66l-.77-.29ZM42.54,267.04v.79h3.48c-.19.42-.44.83-.71,1.21h-3.46v.79h2.86c-.83.94-1.89,1.71-3.19,2.27l.48.75c.79-.38,1.52-.83,2.16-1.35v3.27c0,.62.36.94,1.09.94h4.44c.64,0,1.06-.11,1.31-.27.25-.23.41-.81.52-1.75l-.86-.27c-.06.61-.16,1-.29,1.23-.11.17-.42.27-.92.27h-3.86c-.38,0-.56-.14-.56-.41v-2.71h3.86v.9c0,.25-.17.38-.48.38-.5,0-1.04-.02-1.64-.04l.19.75c.58.02,1.17.04,1.79.04.64-.04.98-.34,1-.9v-1.62c.6.5,1.33.98,2.19,1.44l.56-.71c-1.46-.64-2.54-1.36-3.19-2.19h2.83v-.79h-5.83c.23-.38.41-.79.62-1.21h4.54v-.79h-4.25c.21-.64.4-1.35.52-2.1l-.86-.11c-.12.79-.31,1.52-.54,2.21h-3.81ZM45.77,269.83h2.67c.27.42.6.81,1.02,1.19h-4.75c.38-.36.73-.75,1.06-1.19Z"/>
  <path d="M53.91,266.71c.59-.06,1.12-.17,1.65-.27v1.71h-1.77v.83h1.73c-.42,1.4-1.12,2.62-2.08,3.71l.35.89c.73-.94,1.31-2.02,1.77-3.19v5.42h.81v-5.48c.35.48.77,1.14,1.27,1.98l.48-.71c-.61-.75-1.17-1.41-1.75-2.02v-.61h1.48v-.83h-1.48v-1.89c.5-.12.98-.25,1.41-.42l-.31-.81c-1.06.44-2.31.71-3.73.86l.16.83ZM58.56,265.58v5.58h5.19v-5.58h-5.19ZM62.89,270.35h-3.46v-3.94h3.46v3.94ZM59.6,271.94c-.54,1.33-1.21,2.48-1.98,3.44l.73.52c.77-1.02,1.46-2.21,2.02-3.58l-.77-.38ZM62.54,271.88l-.69.44c.84,1.29,1.52,2.48,2.02,3.56l.73-.52c-.48-.98-1.16-2.14-2.06-3.48Z"/>
  <path d="M68.89,269.46v.77h6.5v-.77h-6.5ZM68.04,271.42v.79h2.62c-.83,1.36-1.54,2.19-2.06,2.5-.06.02-.1.06-.19.08l.19.73c2.27-.14,4.36-.36,6.25-.61.25.29.46.61.67.92l.69-.48c-.52-.77-1.29-1.69-2.27-2.73l-.65.39c.36.42.71.81,1.04,1.21-1.54.23-3.11.4-4.69.5.56-.5,1.21-1.35,1.94-2.52h4.61v-.79h-8.15ZM74.73,266.15v1.39h-7.06v-1.39h7.06ZM67.66,268.32h7.9v-2.98h-8.73v3.98c-.02,2.41-.44,4.38-1.27,5.89l.62.58c.98-1.81,1.48-3.98,1.48-6.48v-1Z"/>
  <path d="M83.14,277.19c-.58-.74-1.08-1.59-1.48-2.56-.41-.98-.6-2.01-.6-3.06,0-.93.15-1.82.46-2.69.34-.98.89-1.96,1.62-2.94h.75c-.47.8-.79,1.38-.94,1.73-.24.54-.43,1.11-.56,1.69-.17.74-.25,1.48-.25,2.21,0,1.88.58,3.75,1.75,5.62h-.75Z"/>
  <path d="M84.83,272.4l1.06-.14c.12.6.32,1.03.61,1.29.29.27.65.4,1.08.4.48,0,.89-.17,1.23-.5.34-.34.52-.78.52-1.29,0-.48-.16-.88-.48-1.19-.3-.32-.7-.48-1.19-.48-.21,0-.46.04-.75.12l.12-.94c.07.02.12.02.17.02.44,0,.84-.12,1.21-.36.36-.23.54-.59.54-1.08,0-.39-.14-.71-.39-.96-.27-.25-.61-.38-1.02-.38s-.74.14-1.02.4c-.27.25-.44.63-.52,1.14l-1.06-.19c.13-.71.43-1.25.88-1.64.46-.39,1.02-.59,1.71-.59.47,0,.9.11,1.29.31.4.2.71.47.91.81.21.35.31.72.31,1.11s-.1.72-.31,1.02c-.2.31-.49.55-.88.73.51.11.91.36,1.19.73.28.36.42.82.42,1.38,0,.75-.28,1.39-.83,1.91-.54.52-1.23.77-2.06.77-.75,0-1.38-.22-1.88-.67-.5-.44-.79-1.03-.86-1.75Z"/>
  <path d="M93.13,270c-.45-.15-.77-.38-.98-.67-.21-.3-.31-.67-.31-1.08,0-.62.22-1.15.67-1.56.46-.43,1.05-.65,1.79-.65s1.36.23,1.81.67c.46.43.69.96.69,1.58,0,.39-.1.74-.31,1.04-.21.29-.53.52-.96.67.53.18.93.47,1.21.85.28.38.42.83.42,1.36,0,.74-.27,1.36-.79,1.86-.52.5-1.2.75-2.04.75s-1.54-.25-2.06-.75c-.52-.5-.77-1.12-.77-1.88,0-.55.14-1.02.42-1.4.29-.38.7-.65,1.23-.79ZM92.92,268.23c0,.41.12.74.38,1,.26.25.61.38,1.02.38s.75-.12,1-.38.39-.58.39-.96-.14-.69-.39-.96c-.27-.26-.6-.4-1-.4s-.74.14-1,.4c-.27.25-.4.55-.4.91ZM92.57,272.19c0,.3.07.6.21.88.15.28.36.49.64.64.28.16.59.23.92.23.5,0,.91-.16,1.23-.48.33-.32.5-.73.5-1.23s-.17-.94-.5-1.27c-.34-.33-.76-.5-1.27-.5s-.91.17-1.25.5c-.32.33-.48.75-.48,1.23Z"/>
  <path d="M101.55,274.67v-2.06h-3.73v-.96l3.91-5.56h.88v5.56h1.17v.96h-1.17v2.06h-1.06ZM101.55,271.65v-3.88l-2.69,3.88h2.69Z"/>
  <path d="M105.83,277.19h-.75c1.16-1.88,1.75-3.75,1.75-5.62,0-.73-.09-1.46-.25-2.19-.14-.59-.33-1.15-.56-1.69-.16-.34-.47-.93-.94-1.75h.75c.73.97,1.27,1.95,1.62,2.94.3.86.46,1.76.46,2.69,0,1.05-.2,2.08-.61,3.06-.41.97-.89,1.82-1.48,2.56Z"/>
  <path d="M109.41,274.67v-1.21h1.21v1.21c0,.45-.08.8-.25,1.06-.16.28-.39.49-.73.65l-.29-.46c.22-.1.38-.24.48-.44.11-.18.17-.45.19-.81h-.61Z"/>
  <path d="M119.39,265.75v.75h2.98c-.04.25-.08.52-.12.79h-2.14v5.54h-1.12v.77h7.61v-.77h-1.11v-5.54h-2.42c.04-.25.09-.52.12-.79h2.98v-.75h-2.88c.02-.27.06-.52.08-.81l-.83-.12c-.04.31-.06.62-.08.94h-3.06ZM120.91,272.83v-.79h3.75v.79h-3.75ZM120.91,271.42v-.73h3.75v.73h-3.75ZM120.91,270.07v-.73h3.75v.73h-3.75ZM120.91,268.73v-.75h3.75v.75h-3.75ZM124.12,273.77l-.54.48c.81.48,1.6,1.02,2.31,1.66l.54-.6c-.73-.61-1.5-1.11-2.31-1.54ZM121.45,273.75c-.69.58-1.52,1.08-2.52,1.52l.52.64c1.02-.48,1.89-1.02,2.58-1.64l-.58-.52ZM115.62,267.82v.81h1.34v4c-.48.1-.96.21-1.44.31l.23.83c1.15-.27,2.25-.62,3.25-1.02v-.86c-.39.17-.79.31-1.21.46v-3.73h1.23v-.81h-1.23v-2.9h-.83v2.9h-1.34Z"/>
  <path d="M132.99,264.82l-.91.14c.25.42.46.86.64,1.33h-4.64v.81h3.44c-.98,1.44-1.77,2.34-2.36,2.67-.06.02-.12.04-.21.06l.21.79c2.48-.12,4.79-.31,6.92-.54.31.44.58.88.83,1.31l.73-.5c-.56-.92-1.36-1.98-2.38-3.21l-.69.44c.35.41.69.83,1,1.27-1.75.19-3.52.33-5.27.44.61-.54,1.31-1.46,2.11-2.73h5.54v-.81h-4.36c-.21-.56-.39-1.04-.61-1.48ZM130.93,271.07c-.06,1.23-.33,2.12-.79,2.66-.46.56-1.25,1.04-2.36,1.44l.54.69c1.23-.5,2.08-1.08,2.6-1.75.48-.64.77-1.64.86-3.04h-.86ZM136.78,275.67c.44,0,.77-.1,1-.31.25-.25.42-.98.54-2.21l-.79-.23c-.06,1-.21,1.61-.39,1.77-.15.1-.36.16-.59.16h-1.39c-.42,0-.62-.19-.62-.54v-3.4h-.86v3.54c0,.81.42,1.21,1.25,1.21h1.86Z"/>
  <path d="M146.83,274.67h-1.06v-6.73c-.25.25-.59.5-1,.75-.42.24-.79.41-1.11.52v-1.02c.58-.26,1.09-.59,1.54-.98.44-.4.75-.79.94-1.17h.69v8.62Z"/>
  <path class="cls-8" d="M.67,239.93h158.67v-25.2H.67v25.2Z"/>
  <path class="cls-6" d="M.67,214.74h158.67v25.2H.67v-25.2Z"/>
  <path d="M11.48,229.73l1.06-.14c.12.6.32,1.03.6,1.29.29.27.65.39,1.09.39.48,0,.89-.17,1.23-.5s.52-.78.52-1.29c0-.48-.16-.88-.48-1.19-.31-.32-.7-.48-1.19-.48-.21,0-.46.04-.75.12l.12-.94c.07.02.12.02.17.02.44,0,.84-.11,1.21-.36.36-.23.54-.59.54-1.08,0-.39-.14-.71-.4-.96-.27-.25-.6-.38-1.02-.38s-.75.13-1.02.39c-.27.25-.44.64-.52,1.14l-1.06-.19c.14-.71.43-1.25.88-1.64.46-.39,1.03-.58,1.71-.58.47,0,.9.1,1.29.31.4.2.71.47.92.81.21.35.31.72.31,1.1s-.11.72-.31,1.02c-.2.3-.49.55-.88.73.51.12.91.36,1.19.73.28.36.42.82.42,1.38,0,.75-.28,1.39-.84,1.92-.54.52-1.23.77-2.06.77-.75,0-1.38-.22-1.88-.67-.5-.44-.79-1.02-.85-1.75Z"/>
  <g class="cls-2">
    <path d="M24.47,228.65l2.38-2.38c.12-.14.17-.17.17-.25,0-.14-.12-.25-.25-.25-.09,0-.15.04-.25.17l-2.4,2.38-2.39-2.38c-.12-.15-.17-.17-.25-.17-.12,0-.25.11-.25.25,0,.08.06.14.17.25l2.38,2.38-2.38,2.39c-.12.11-.17.19-.17.25,0,.15.12.25.25.25.08,0,.12-.02.25-.16l2.39-2.38,2.4,2.38c.1.12.19.16.25.16.14,0,.25-.1.25-.25,0-.08-.04-.1-.17-.25l-2.38-2.39Z"/>
    <path d="M24.47,228.65l2.38-2.38c.12-.14.17-.17.17-.25,0-.14-.12-.25-.25-.25-.09,0-.15.04-.25.17l-2.4,2.38-2.39-2.38c-.12-.15-.17-.17-.25-.17-.12,0-.25.11-.25.25,0,.08.06.14.17.25l2.38,2.38-2.38,2.39c-.12.11-.17.19-.17.25,0,.15.12.25.25.25.08,0,.12-.02.25-.16l2.39-2.38,2.4,2.38c.1.12.19.16.25.16.14,0,.25-.1.25-.25,0-.08-.04-.1-.17-.25l-2.38-2.39Z"/>
  </g>
  <path d="M31.49,229.73l1.06-.14c.12.6.32,1.03.6,1.29.29.27.65.39,1.09.39.48,0,.89-.17,1.23-.5s.52-.78.52-1.29c0-.48-.16-.88-.48-1.19-.31-.32-.7-.48-1.19-.48-.21,0-.46.04-.75.12l.12-.94c.07.02.12.02.17.02.44,0,.84-.11,1.21-.36.36-.23.54-.59.54-1.08,0-.39-.14-.71-.4-.96-.27-.25-.6-.38-1.02-.38s-.75.13-1.02.39c-.27.25-.44.64-.52,1.14l-1.06-.19c.14-.71.43-1.25.88-1.64.46-.39,1.03-.58,1.71-.58.47,0,.9.1,1.29.31.4.2.71.47.92.81.21.35.31.72.31,1.1s-.11.72-.31,1.02c-.2.3-.49.55-.88.73.51.12.91.36,1.19.73.28.36.42.82.42,1.38,0,.75-.28,1.39-.84,1.92-.54.52-1.23.77-2.06.77-.75,0-1.38-.22-1.88-.67-.5-.44-.79-1.02-.85-1.75Z"/>
  <path d="M44.14,222.35l-.77.27c.35.48.69,1.04,1,1.66l.73-.33c-.27-.56-.58-1.08-.96-1.61ZM50.04,222.35c-.29.61-.64,1.12-1.1,1.56l.69.4c.48-.48.88-1.04,1.19-1.67l-.77-.29ZM42.54,224.38v.79h3.48c-.19.42-.44.84-.71,1.21h-3.46v.79h2.86c-.83.94-1.89,1.71-3.19,2.27l.48.75c.79-.38,1.52-.84,2.16-1.36v3.27c0,.62.36.94,1.09.94h4.44c.64,0,1.06-.1,1.31-.27.25-.23.41-.81.52-1.75l-.86-.27c-.06.6-.16,1-.29,1.23-.11.17-.42.27-.92.27h-3.86c-.38,0-.56-.15-.56-.42v-2.71h3.86v.89c0,.25-.17.38-.48.38-.5,0-1.04-.02-1.64-.04l.19.75c.58.02,1.17.04,1.79.04.64-.04.98-.33,1-.89v-1.62c.6.5,1.33.98,2.19,1.44l.56-.71c-1.46-.64-2.54-1.35-3.19-2.19h2.83v-.79h-5.83c.23-.38.41-.79.62-1.21h4.54v-.79h-4.25c.21-.65.4-1.36.52-2.11l-.86-.11c-.12.79-.31,1.52-.54,2.21h-3.81ZM45.77,227.17h2.67c.27.42.6.81,1.02,1.19h-4.75c.38-.35.73-.75,1.06-1.19Z"/>
  <path d="M53.91,224.04c.59-.06,1.12-.16,1.65-.27v1.71h-1.77v.84h1.73c-.42,1.39-1.12,2.62-2.08,3.71l.35.89c.73-.94,1.31-2.02,1.77-3.19v5.42h.81v-5.48c.35.48.77,1.15,1.27,1.98l.48-.71c-.61-.75-1.17-1.42-1.75-2.02v-.6h1.48v-.84h-1.48v-1.89c.5-.12.98-.25,1.41-.42l-.31-.81c-1.06.44-2.31.71-3.73.86l.16.83ZM58.56,222.92v5.59h5.19v-5.59h-5.19ZM62.89,227.69h-3.46v-3.94h3.46v3.94ZM59.6,229.27c-.54,1.33-1.21,2.48-1.98,3.44l.73.52c.77-1.02,1.46-2.21,2.02-3.58l-.77-.38ZM62.54,229.21l-.69.44c.84,1.29,1.52,2.48,2.02,3.56l.73-.52c-.48-.98-1.16-2.15-2.06-3.48Z"/>
  <path d="M68.89,226.79v.77h6.5v-.77h-6.5ZM68.04,228.75v.79h2.62c-.83,1.36-1.54,2.19-2.06,2.5-.06.02-.1.06-.19.09l.19.73c2.27-.14,4.36-.35,6.25-.6.25.29.46.6.67.91l.69-.48c-.52-.77-1.29-1.69-2.27-2.73l-.65.39c.36.42.71.81,1.04,1.21-1.54.23-3.11.39-4.69.5.56-.5,1.21-1.36,1.94-2.52h4.61v-.79h-8.15ZM74.73,223.48v1.4h-7.06v-1.4h7.06ZM67.66,225.65h7.9v-2.98h-8.73v3.98c-.02,2.42-.44,4.38-1.27,5.89l.62.59c.98-1.81,1.48-3.98,1.48-6.48v-1Z"/>
  <path d="M83.14,234.52c-.58-.74-1.08-1.59-1.48-2.56-.41-.98-.6-2-.6-3.06,0-.93.15-1.82.46-2.69.34-.98.89-1.96,1.62-2.94h.75c-.47.81-.79,1.39-.94,1.73-.24.54-.43,1.1-.56,1.69-.17.74-.25,1.47-.25,2.21,0,1.88.58,3.75,1.75,5.62h-.75Z"/>
  <path d="M84.83,229.73l1.06-.14c.12.6.32,1.03.61,1.29.29.27.65.39,1.08.39.48,0,.89-.17,1.23-.5.34-.34.52-.78.52-1.29,0-.48-.16-.88-.48-1.19-.3-.32-.7-.48-1.19-.48-.21,0-.46.04-.75.12l.12-.94c.07.02.12.02.17.02.44,0,.84-.11,1.21-.36.36-.23.54-.59.54-1.08,0-.39-.14-.71-.39-.96-.27-.25-.61-.38-1.02-.38s-.74.13-1.02.39c-.27.25-.44.64-.52,1.14l-1.06-.19c.13-.71.43-1.25.88-1.64.46-.39,1.02-.58,1.71-.58.47,0,.9.1,1.29.31.4.2.71.47.91.81.21.35.31.72.31,1.1s-.1.72-.31,1.02c-.2.3-.49.55-.88.73.51.12.91.36,1.19.73.28.36.42.82.42,1.38,0,.75-.28,1.39-.83,1.92-.54.52-1.23.77-2.06.77-.75,0-1.38-.22-1.88-.67-.5-.44-.79-1.02-.86-1.75Z"/>
  <path d="M93.13,227.33c-.45-.15-.77-.38-.98-.67-.21-.3-.31-.66-.31-1.08,0-.62.22-1.14.67-1.56.46-.43,1.05-.64,1.79-.64s1.36.22,1.81.66c.46.43.69.96.69,1.59,0,.39-.1.74-.31,1.04-.21.29-.53.52-.96.67.53.18.93.47,1.21.86.28.38.42.83.42,1.35,0,.74-.27,1.36-.79,1.86-.52.5-1.2.75-2.04.75s-1.54-.25-2.06-.75c-.52-.5-.77-1.12-.77-1.88,0-.55.14-1.02.42-1.39.29-.39.7-.65,1.23-.79ZM92.92,225.57c0,.41.12.74.38,1,.26.25.61.38,1.02.38s.75-.12,1-.38c.26-.26.39-.59.39-.96s-.14-.69-.39-.96c-.27-.26-.6-.39-1-.39s-.74.13-1,.39c-.27.25-.4.56-.4.92ZM92.57,229.52c0,.31.07.6.21.88.15.28.36.5.64.64.28.16.59.23.92.23.5,0,.91-.16,1.23-.48.33-.32.5-.73.5-1.23s-.17-.94-.5-1.27c-.34-.33-.76-.5-1.27-.5s-.91.17-1.25.5c-.32.34-.48.75-.48,1.23Z"/>
  <path d="M101.55,232v-2.06h-3.73v-.96l3.91-5.56h.88v5.56h1.17v.96h-1.17v2.06h-1.06ZM101.55,228.98v-3.88l-2.69,3.88h2.69Z"/>
  <path d="M105.83,234.52h-.75c1.16-1.88,1.75-3.75,1.75-5.62,0-.73-.09-1.46-.25-2.19-.14-.58-.33-1.14-.56-1.69-.16-.34-.47-.93-.94-1.75h.75c.73.97,1.27,1.95,1.62,2.94.3.86.46,1.76.46,2.69,0,1.06-.2,2.08-.61,3.06-.41.97-.89,1.82-1.48,2.56Z"/>
  <path d="M109.41,232v-1.21h1.21v1.21c0,.44-.08.8-.25,1.06-.16.27-.39.49-.73.64l-.29-.46c.22-.1.38-.25.48-.44.11-.18.17-.45.19-.81h-.61Z"/>
  <path d="M119.39,223.08v.75h2.98c-.04.25-.08.52-.12.79h-2.14v5.54h-1.12v.77h7.61v-.77h-1.11v-5.54h-2.42c.04-.25.09-.52.12-.79h2.98v-.75h-2.88c.02-.27.06-.52.08-.81l-.83-.12c-.04.31-.06.62-.08.94h-3.06ZM120.91,230.17v-.79h3.75v.79h-3.75ZM120.91,228.75v-.73h3.75v.73h-3.75ZM120.91,227.4v-.73h3.75v.73h-3.75ZM120.91,226.07v-.75h3.75v.75h-3.75ZM124.12,231.1l-.54.48c.81.48,1.6,1.02,2.31,1.67l.54-.61c-.73-.61-1.5-1.11-2.31-1.54ZM121.45,231.08c-.69.58-1.52,1.08-2.52,1.52l.52.65c1.02-.48,1.89-1.02,2.58-1.65l-.58-.52ZM115.62,225.15v.81h1.34v4c-.48.11-.96.21-1.44.31l.23.83c1.15-.27,2.25-.62,3.25-1.02v-.86c-.39.17-.79.31-1.21.46v-3.73h1.23v-.81h-1.23v-2.89h-.83v2.89h-1.34Z"/>
  <path d="M132.99,222.15l-.91.14c.25.42.46.86.64,1.34h-4.64v.81h3.44c-.98,1.44-1.77,2.33-2.36,2.66-.06.02-.12.04-.21.06l.21.79c2.48-.12,4.79-.31,6.92-.54.31.44.58.88.83,1.31l.73-.5c-.56-.91-1.36-1.98-2.38-3.21l-.69.44c.35.42.69.83,1,1.27-1.75.19-3.52.34-5.27.44.61-.54,1.31-1.46,2.11-2.73h5.54v-.81h-4.36c-.21-.56-.39-1.04-.61-1.48ZM130.93,228.4c-.06,1.23-.33,2.12-.79,2.67-.46.56-1.25,1.04-2.36,1.44l.54.69c1.23-.5,2.08-1.09,2.6-1.75.48-.65.77-1.65.86-3.04h-.86ZM136.78,233c.44,0,.77-.11,1-.31.25-.25.42-.98.54-2.21l-.79-.23c-.06,1-.21,1.6-.39,1.77-.15.11-.36.17-.59.17h-1.39c-.42,0-.62-.19-.62-.54v-3.39h-.86v3.54c0,.81.42,1.21,1.25,1.21h1.86Z"/>
  <path d="M146.83,232h-1.06v-6.73c-.25.25-.59.5-1,.75-.42.24-.79.41-1.11.52v-1.02c.58-.26,1.09-.59,1.54-.98.44-.4.75-.79.94-1.16h.69v8.62Z"/>
  <path class="cls-8" d="M.67,197.27h158.67v-25.2H.67v25.2Z"/>
  <path class="cls-6" d="M.67,172.07h158.67v25.2H.67v-25.2Z"/>
  <path d="M11.48,187.07l1.06-.15c.12.6.32,1.03.6,1.29.29.27.65.39,1.09.39.48,0,.89-.16,1.23-.5.34-.34.52-.77.52-1.29,0-.48-.16-.88-.48-1.19-.31-.32-.7-.48-1.19-.48-.21,0-.46.04-.75.12l.12-.94c.07.02.12.02.17.02.44,0,.84-.11,1.21-.35.36-.23.54-.59.54-1.09,0-.38-.14-.71-.4-.96-.27-.25-.6-.38-1.02-.38s-.75.14-1.02.39c-.27.25-.44.64-.52,1.15l-1.06-.19c.14-.71.43-1.26.88-1.65.46-.38,1.03-.58,1.71-.58.47,0,.9.11,1.29.31.4.2.71.47.92.81.21.35.31.72.31,1.11s-.11.72-.31,1.02c-.2.31-.49.55-.88.73.51.11.91.35,1.19.73.28.37.42.82.42,1.38,0,.75-.28,1.39-.84,1.92-.54.52-1.23.77-2.06.77-.75,0-1.38-.22-1.88-.66s-.79-1.03-.85-1.75Z"/>
  <g class="cls-12">
    <path d="M24.47,185.98l2.38-2.38c.12-.14.17-.16.17-.25,0-.14-.12-.25-.25-.25-.09,0-.15.04-.25.17l-2.4,2.38-2.39-2.38c-.12-.14-.17-.17-.25-.17-.12,0-.25.11-.25.25,0,.09.06.15.17.25l2.38,2.38-2.38,2.4c-.12.1-.17.19-.17.25,0,.14.12.25.25.25.08,0,.12-.02.25-.17l2.39-2.38,2.4,2.38c.1.12.19.17.25.17.14,0,.25-.11.25-.25,0-.09-.04-.11-.17-.25l-2.38-2.4Z"/>
    <path d="M24.47,185.98l2.38-2.38c.12-.14.17-.16.17-.25,0-.14-.12-.25-.25-.25-.09,0-.15.04-.25.17l-2.4,2.38-2.39-2.38c-.12-.14-.17-.17-.25-.17-.12,0-.25.11-.25.25,0,.09.06.15.17.25l2.38,2.38-2.38,2.4c-.12.1-.17.19-.17.25,0,.14.12.25.25.25.08,0,.12-.02.25-.17l2.39-2.38,2.4,2.38c.1.12.19.17.25.17.14,0,.25-.11.25-.25,0-.09-.04-.11-.17-.25l-2.38-2.4Z"/>
  </g>
  <path d="M31.49,187.07l1.06-.15c.12.6.32,1.03.6,1.29.29.27.65.39,1.09.39.48,0,.89-.16,1.23-.5.34-.34.52-.77.52-1.29,0-.48-.16-.88-.48-1.19-.31-.32-.7-.48-1.19-.48-.21,0-.46.04-.75.12l.12-.94c.07.02.12.02.17.02.44,0,.84-.11,1.21-.35.36-.23.54-.59.54-1.09,0-.38-.14-.71-.4-.96-.27-.25-.6-.38-1.02-.38s-.75.14-1.02.39c-.27.25-.44.64-.52,1.15l-1.06-.19c.14-.71.43-1.26.88-1.65.46-.38,1.03-.58,1.71-.58.47,0,.9.11,1.29.31.4.2.71.47.92.81.21.35.31.72.31,1.11s-.11.72-.31,1.02c-.2.31-.49.55-.88.73.51.11.91.35,1.19.73.28.37.42.82.42,1.38,0,.75-.28,1.39-.84,1.92-.54.52-1.23.77-2.06.77-.75,0-1.38-.22-1.88-.66s-.79-1.03-.85-1.75Z"/>
  <path d="M44.14,179.69l-.77.27c.35.48.69,1.04,1,1.67l.73-.34c-.27-.56-.58-1.08-.96-1.6ZM50.04,179.69c-.29.6-.64,1.12-1.1,1.56l.69.39c.48-.48.88-1.04,1.19-1.67l-.77-.29ZM42.54,181.71v.79h3.48c-.19.41-.44.83-.71,1.21h-3.46v.79h2.86c-.83.94-1.89,1.71-3.19,2.27l.48.75c.79-.38,1.52-.83,2.16-1.36v3.27c0,.62.36.94,1.09.94h4.44c.64,0,1.06-.11,1.31-.27.25-.23.41-.81.52-1.75l-.86-.27c-.06.61-.16,1-.29,1.23-.11.16-.42.27-.92.27h-3.86c-.38,0-.56-.14-.56-.42v-2.71h3.86v.89c0,.25-.17.38-.48.38-.5,0-1.04-.02-1.64-.04l.19.75c.58.02,1.17.04,1.79.04.64-.04.98-.33,1-.89v-1.62c.6.5,1.33.98,2.19,1.44l.56-.71c-1.46-.65-2.54-1.36-3.19-2.19h2.83v-.79h-5.83c.23-.38.41-.79.62-1.21h4.54v-.79h-4.25c.21-.64.4-1.36.52-2.11l-.86-.1c-.12.79-.31,1.52-.54,2.21h-3.81ZM45.77,184.5h2.67c.27.41.6.81,1.02,1.19h-4.75c.38-.36.73-.75,1.06-1.19Z"/>
  <path d="M53.91,181.38c.59-.06,1.12-.17,1.65-.27v1.71h-1.77v.83h1.73c-.42,1.39-1.12,2.62-2.08,3.71l.35.9c.73-.94,1.31-2.02,1.77-3.19v5.41h.81v-5.48c.35.48.77,1.14,1.27,1.98l.48-.71c-.61-.75-1.17-1.42-1.75-2.02v-.61h1.48v-.83h-1.48v-1.9c.5-.12.98-.25,1.41-.41l-.31-.81c-1.06.44-2.31.71-3.73.85l.16.84ZM58.56,180.25v5.58h5.19v-5.58h-5.19ZM62.89,185.02h-3.46v-3.94h3.46v3.94ZM59.6,186.6c-.54,1.34-1.21,2.48-1.98,3.44l.73.52c.77-1.02,1.46-2.21,2.02-3.59l-.77-.38ZM62.54,186.54l-.69.44c.84,1.29,1.52,2.48,2.02,3.56l.73-.52c-.48-.98-1.16-2.14-2.06-3.48Z"/>
  <path d="M68.89,184.13v.77h6.5v-.77h-6.5ZM68.04,186.08v.79h2.62c-.83,1.35-1.54,2.19-2.06,2.5-.06.02-.1.06-.19.08l.19.73c2.27-.15,4.36-.36,6.25-.61.25.29.46.61.67.92l.69-.48c-.52-.77-1.29-1.69-2.27-2.73l-.65.4c.36.41.71.81,1.04,1.21-1.54.23-3.11.39-4.69.5.56-.5,1.21-1.36,1.94-2.52h4.61v-.79h-8.15ZM74.73,180.82v1.39h-7.06v-1.39h7.06ZM67.66,182.98h7.9v-2.98h-8.73v3.98c-.02,2.42-.44,4.38-1.27,5.9l.62.58c.98-1.81,1.48-3.98,1.48-6.48v-1Z"/>
  <path d="M83.14,191.85c-.58-.74-1.08-1.59-1.48-2.56-.41-.98-.6-2-.6-3.06,0-.93.15-1.82.46-2.69.34-.98.89-1.96,1.62-2.94h.75c-.47.81-.79,1.39-.94,1.73-.24.54-.43,1.11-.56,1.69-.17.74-.25,1.47-.25,2.21,0,1.88.58,3.75,1.75,5.62h-.75Z"/>
  <path d="M90.37,188.32v1.02h-5.69c0-.25.04-.49.12-.73.15-.38.38-.77.71-1.14.32-.38.78-.8,1.38-1.29.93-.77,1.55-1.38,1.88-1.83.33-.44.5-.86.5-1.27s-.16-.76-.46-1.04c-.29-.29-.68-.44-1.15-.44-.52,0-.93.16-1.23.46s-.46.73-.46,1.27l-1.08-.12c.07-.8.34-1.42.83-1.84.48-.43,1.14-.64,1.96-.64s1.46.23,1.94.69c.48.46.73,1.02.73,1.69,0,.35-.07.69-.21,1.02-.14.34-.38.69-.71,1.06-.32.37-.86.87-1.61,1.5-.64.53-1.05.89-1.23,1.09s-.33.38-.44.56h4.21Z"/>
  <path d="M91.5,187.08l1.1-.11c.09.54.27.95.56,1.23.3.27.67.39,1.09.39.51,0,.94-.19,1.29-.56.36-.38.54-.89.54-1.52s-.18-1.09-.52-1.44c-.34-.34-.77-.52-1.31-.52-.35,0-.66.08-.94.25-.27.16-.48.35-.65.58l-.98-.12.83-4.42h4.27v1.02h-3.44l-.46,2.29c.51-.34,1.05-.52,1.62-.52.75,0,1.38.26,1.89.77.51.52.77,1.18.77,2s-.23,1.45-.67,2.02c-.56.7-1.31,1.04-2.27,1.04-.78,0-1.42-.21-1.92-.64-.49-.44-.77-1.03-.83-1.75Z"/>
  <path d="M103.65,182.85l-1.06.09c-.08-.42-.22-.72-.39-.92-.28-.29-.62-.44-1.04-.44-.35,0-.64.09-.89.27-.34.25-.6.61-.79,1.06-.18.46-.28,1.12-.29,1.98.25-.38.55-.65.92-.83.38-.2.76-.29,1.17-.29.71,0,1.3.26,1.79.77.5.52.75,1.18.75,2,0,.54-.12,1.05-.35,1.52-.24.46-.56.81-.96,1.06-.41.23-.86.35-1.38.35-.88,0-1.59-.32-2.14-.96-.56-.65-.83-1.72-.83-3.21,0-1.65.3-2.86.91-3.62.53-.65,1.25-.98,2.17-.98.67,0,1.21.2,1.64.58.43.38.7.9.79,1.56ZM99.34,186.54c0,.38.07.73.23,1.06.15.32.36.57.64.75.28.17.57.25.88.25.44,0,.82-.17,1.14-.52.32-.36.48-.86.48-1.48s-.16-1.06-.48-1.39c-.3-.34-.7-.52-1.19-.52s-.88.18-1.21.52c-.33.33-.5.78-.5,1.33Z"/>
  <path d="M105.83,191.85h-.75c1.16-1.88,1.75-3.75,1.75-5.62,0-.73-.09-1.46-.25-2.19-.14-.58-.33-1.14-.56-1.69-.16-.34-.47-.93-.94-1.75h.75c.73.98,1.27,1.95,1.62,2.94.3.87.46,1.76.46,2.69,0,1.06-.2,2.08-.61,3.06-.41.97-.89,1.82-1.48,2.56Z"/>
  <path d="M109.41,189.33v-1.21h1.21v1.21c0,.44-.08.8-.25,1.06-.16.28-.39.49-.73.64l-.29-.46c.22-.1.38-.25.48-.44.11-.18.17-.45.19-.81h-.61Z"/>
  <path d="M119.39,180.42v.75h2.98c-.04.25-.08.52-.12.79h-2.14v5.54h-1.12v.77h7.61v-.77h-1.11v-5.54h-2.42c.04-.25.09-.52.12-.79h2.98v-.75h-2.88c.02-.27.06-.52.08-.81l-.83-.12c-.04.31-.06.62-.08.94h-3.06ZM120.91,187.5v-.79h3.75v.79h-3.75ZM120.91,186.08v-.73h3.75v.73h-3.75ZM120.91,184.73v-.73h3.75v.73h-3.75ZM120.91,183.4v-.75h3.75v.75h-3.75ZM124.12,188.44l-.54.48c.81.48,1.6,1.02,2.31,1.67l.54-.61c-.73-.6-1.5-1.1-2.31-1.54ZM121.45,188.42c-.69.59-1.52,1.09-2.52,1.52l.52.64c1.02-.48,1.89-1.02,2.58-1.64l-.58-.52ZM115.62,182.48v.81h1.34v4c-.48.11-.96.21-1.44.31l.23.84c1.15-.27,2.25-.62,3.25-1.02v-.85c-.39.16-.79.31-1.21.46v-3.73h1.23v-.81h-1.23v-2.89h-.83v2.89h-1.34Z"/>
  <path d="M132.99,179.48l-.91.15c.25.41.46.85.64,1.33h-4.64v.81h3.44c-.98,1.44-1.77,2.33-2.36,2.67-.06.02-.12.04-.21.06l.21.79c2.48-.12,4.79-.31,6.92-.54.31.44.58.88.83,1.31l.73-.5c-.56-.92-1.36-1.98-2.38-3.21l-.69.44c.35.42.69.84,1,1.27-1.75.19-3.52.33-5.27.44.61-.54,1.31-1.46,2.11-2.73h5.54v-.81h-4.36c-.21-.56-.39-1.04-.61-1.48ZM130.93,185.73c-.06,1.23-.33,2.12-.79,2.67-.46.56-1.25,1.04-2.36,1.44l.54.69c1.23-.5,2.08-1.08,2.6-1.75.48-.64.77-1.64.86-3.04h-.86ZM136.78,190.33c.44,0,.77-.11,1-.31.25-.25.42-.98.54-2.21l-.79-.23c-.06,1-.21,1.61-.39,1.77-.15.11-.36.17-.59.17h-1.39c-.42,0-.62-.19-.62-.54v-3.39h-.86v3.54c0,.81.42,1.21,1.25,1.21h1.86Z"/>
  <path d="M146.83,189.33h-1.06v-6.73c-.25.25-.59.5-1,.75-.42.24-.79.41-1.11.52v-1.02c.58-.26,1.09-.59,1.54-.98.44-.4.75-.79.94-1.17h.69v8.62Z"/>
  <path class="cls-6" d="M80,300.07v-9.6"/>
  <path class="cls-7" d="M80,285.14v5.34M78,290.47l2-5.34,2,5.34"/>
  <path class="cls-6" d="M80,342.74v-9.6"/>
  <path class="cls-7" d="M80,327.8v5.33M78,333.14l2-5.33,2,5.33"/>
  <path class="cls-6" d="M80,257.4v-9.6"/>
  <path class="cls-7" d="M80,242.47v5.33M78,247.8l2-5.33,2,5.33"/>
  <path class="cls-6" d="M80,385.4v-9.6"/>
  <path class="cls-7" d="M80,370.47v5.33M78,375.8l2-5.33,2,5.33"/>
  <path class="cls-6" d="M80,428.07v-9.6"/>
  <path class="cls-7" d="M80,413.14v5.34M78,418.47l2-5.34,2,5.34"/>
  <path class="cls-6" d="M80,470.74v-9.6"/>
  <path class="cls-7" d="M80,455.8v5.33M78,461.14l2-5.33,2,5.33"/>
  <path class="cls-10" d="M.67,154.6h158.67v-25.2H.67v25.2Z"/>
  <path class="cls-6" d="M.67,129.4h158.67v25.2H.67v-25.2Z"/>
  <path d="M15.15,144.4l1.06-.14c.12.6.32,1.03.61,1.29.29.27.65.4,1.08.4.48,0,.89-.17,1.23-.5.34-.34.52-.78.52-1.29,0-.48-.16-.88-.48-1.19-.3-.32-.7-.48-1.19-.48-.21,0-.46.04-.75.12l.12-.94c.07.02.12.02.17.02.44,0,.84-.12,1.21-.36.36-.23.54-.59.54-1.08,0-.39-.14-.71-.39-.96-.27-.25-.61-.38-1.02-.38s-.74.14-1.02.4c-.27.25-.44.63-.52,1.14l-1.06-.19c.13-.71.43-1.25.88-1.64.46-.39,1.02-.59,1.71-.59.47,0,.9.11,1.29.31.4.2.71.47.91.81.21.35.31.72.31,1.11s-.1.72-.31,1.02c-.2.31-.49.55-.88.73.51.11.91.36,1.19.73.28.36.42.82.42,1.38,0,.75-.28,1.39-.83,1.91-.54.52-1.23.77-2.06.77-.75,0-1.38-.22-1.88-.67-.5-.44-.79-1.03-.86-1.75Z"/>
  <g class="cls-4">
    <path d="M28.15,143.32l2.38-2.38c.12-.15.17-.17.17-.25,0-.15-.12-.25-.25-.25-.09,0-.15.04-.25.16l-2.4,2.38-2.39-2.38c-.12-.14-.17-.16-.25-.16-.12,0-.25.1-.25.25,0,.08.06.14.17.25l2.38,2.38-2.38,2.39c-.12.11-.17.19-.17.25,0,.14.12.25.25.25.08,0,.12-.02.25-.17l2.39-2.38,2.4,2.38c.1.12.19.17.25.17.14,0,.25-.11.25-.25,0-.08-.04-.11-.17-.25l-2.38-2.39Z"/>
    <path d="M28.15,143.32l2.38-2.38c.12-.15.17-.17.17-.25,0-.15-.12-.25-.25-.25-.09,0-.15.04-.25.16l-2.4,2.38-2.39-2.38c-.12-.14-.17-.16-.25-.16-.12,0-.25.1-.25.25,0,.08.06.14.17.25l2.38,2.38-2.38,2.39c-.12.11-.17.19-.17.25,0,.14.12.25.25.25.08,0,.12-.02.25-.17l2.39-2.38,2.4,2.38c.1.12.19.17.25.17.14,0,.25-.11.25-.25,0-.08-.04-.11-.17-.25l-2.38-2.39Z"/>
  </g>
  <path d="M35.16,144.4l1.06-.14c.12.6.32,1.03.61,1.29.29.27.65.4,1.08.4.48,0,.89-.17,1.23-.5.34-.34.52-.78.52-1.29,0-.48-.16-.88-.48-1.19-.3-.32-.7-.48-1.19-.48-.21,0-.46.04-.75.12l.12-.94c.07.02.12.02.17.02.44,0,.84-.12,1.21-.36.36-.23.54-.59.54-1.08,0-.39-.14-.71-.39-.96-.27-.25-.61-.38-1.02-.38s-.74.14-1.02.4c-.27.25-.44.63-.52,1.14l-1.06-.19c.13-.71.43-1.25.88-1.64.46-.39,1.02-.59,1.71-.59.47,0,.9.11,1.29.31.4.2.71.47.91.81.21.35.31.72.31,1.11s-.1.72-.31,1.02c-.2.31-.49.55-.88.73.51.11.91.36,1.19.73.28.36.42.82.42,1.38,0,.75-.28,1.39-.83,1.91-.54.52-1.23.77-2.06.77-.75,0-1.38-.22-1.88-.67-.5-.44-.79-1.03-.86-1.75Z"/>
  <path d="M45.4,141.54v.69h1.14v4.17l-1.12.04.11.75c1.69-.11,3.08-.23,4.23-.36v1.06h.83v-1.17c.23-.04.48-.08.69-.12v-.69c-.21.04-.46.09-.69.11v-3.79h5.39v-.69h-10.58ZM47.32,146.35v-1.04h2.44v.83c-.73.08-1.54.14-2.44.21ZM47.32,144.69v-.9h2.44v.9h-2.44ZM47.32,143.15v-.92h2.44v.92h-2.44ZM46.92,137.29v3.46h7.59v-3.46h-7.59ZM53.67,140.13h-5.94v-.81h5.94v.81ZM47.73,138.71v-.77h5.94v.77h-5.94ZM51.59,143.75c.25.88.69,1.66,1.36,2.35-.5.44-1.12.79-1.86,1.11l.44.67c.79-.34,1.46-.75,2.02-1.23.54.46,1.21.86,2,1.23l.44-.71c-.75-.31-1.35-.66-1.89-1.06.58-.66.98-1.46,1.21-2.39v-.67h-4.08v.71h.38ZM53.48,145.58c-.56-.54-.94-1.14-1.14-1.83h2.19c-.21.66-.56,1.29-1.04,1.83Z"/>
  <path d="M57.4,140.02v.83h4.52c-.62,2.96-2.21,5.06-4.75,6.34l.54.71c2.54-1.33,4.21-3.46,4.94-6.38.92,2.73,2.56,4.81,4.98,6.29l.54-.69c-2.46-1.46-4.12-3.56-4.96-6.27h4.73v-.83h-4.98c.08-.75.14-1.52.14-2.38v-.77h-.88v.98c-.02.75-.06,1.46-.16,2.17h-4.67Z"/>
  <path d="M74.17,146.58v-8.38h5.71v-.83h-6.59v10.08h6.69v-.88h-5.81ZM70.13,137.08l-.61.61c1,.64,1.77,1.25,2.31,1.83l.61-.62c-.62-.58-1.38-1.21-2.31-1.81ZM69.9,140.02l-.62.61c.94.62,1.64,1.21,2.19,1.77l.62-.62c-.61-.58-1.33-1.17-2.19-1.75ZM71.32,143.57c-.52,1.31-1.17,2.6-1.88,3.85l.88.4c.66-1.21,1.25-2.54,1.81-3.94l-.81-.31Z"/>
  <path d="M86.32,143.69v4.14h.79v-4.23l.65-.1c.46,1.79,1.71,3.21,3.75,4.25l.44-.73c-.92-.42-1.69-.92-2.27-1.5.69-.42,1.27-.81,1.71-1.21l-.46-.61c-.46.44-1.04.86-1.73,1.27-.36-.48-.62-1.02-.77-1.6.81-.17,1.56-.38,2.25-.65l-.39-.66c-2.08.71-4.75,1.08-7.94,1.08l.25.73c1.36,0,2.61-.06,3.73-.19ZM81.61,137.32v.69h.92v3.48c-.39.02-.77.06-1.19.11l.08.71c1.44-.1,2.79-.27,4.02-.44v.67h.77v-.77c.27-.04.54-.09.83-.12v-.67c-.27.04-.56.08-.83.14v-3.1h.83v-.69h-5.44ZM83.28,141.42v-.81h2.17v.59c-.67.08-1.4.16-2.17.23ZM83.28,140v-.69h2.17v.69h-2.17ZM83.28,138.71v-.71h2.17v.71h-2.17ZM87.86,138.83l-.52.52c.64.42,1.27.86,1.81,1.25-.54.5-1.19.88-1.89,1.11l.33.71c.83-.29,1.56-.73,2.19-1.33.52.39.98.79,1.38,1.21l.56-.56c-.42-.39-.89-.79-1.44-1.21.48-.61.92-1.33,1.25-2.21v-.62h-4.12v.73h3.25c-.29.61-.61,1.17-1,1.65-.54-.42-1.14-.81-1.79-1.23ZM84.19,143.96c-.34.29-.71.52-1.11.75-.48.23-.98.42-1.56.56l.42.67c.69-.25,1.27-.48,1.71-.73.39-.23.79-.5,1.19-.86l-.64-.39ZM85.13,145.27c-.46.38-.94.71-1.46.98-.6.31-1.25.56-2,.75l.42.69c.89-.31,1.61-.61,2.17-.92.5-.29,1.02-.64,1.52-1.11l-.64-.39Z"/>
  <path d="M96.57,141.46v.77h6.5v-.77h-6.5ZM95.71,143.42v.79h2.62c-.83,1.36-1.54,2.19-2.06,2.5-.06.02-.11.06-.19.08l.19.73c2.27-.14,4.36-.36,6.25-.61.25.29.46.61.67.92l.69-.48c-.52-.77-1.29-1.69-2.27-2.73l-.64.39c.36.42.71.81,1.04,1.21-1.54.23-3.11.4-4.69.5.56-.5,1.21-1.35,1.94-2.52h4.6v-.79h-8.14ZM102.4,138.15v1.39h-7.06v-1.39h7.06ZM95.34,140.32h7.89v-2.98h-8.73v3.98c-.02,2.41-.44,4.38-1.27,5.89l.62.58c.98-1.81,1.48-3.98,1.48-6.48v-1Z"/>
  <path d="M105.73,146.67v-1.21h1.21v1.21c0,.45-.09.8-.25,1.06-.16.28-.4.49-.73.65l-.29-.46c.22-.1.38-.24.48-.44.11-.18.17-.45.19-.81h-.61Z"/>
  <path d="M116.96,136.83v3.94h-2.25v-3h-.88v3h-1.83v.86h5.04v3.6h.85v-3.6h4.77v-.86h-4.84v-1.64h3.65v-.84h-3.65v-1.46h-.88ZM120.88,142.5c-1.31,3.04-4.06,4.58-8.21,4.58l.31.83c4.27-.02,7.16-1.69,8.69-5l-.79-.41ZM114.88,142.15c-.69,1.06-1.54,1.98-2.56,2.77l.54.71c1.04-.84,1.91-1.81,2.64-2.92l-.62-.56Z"/>
  <path d="M128.49,137.33v.77h6.16v-.77h-6.16ZM129.17,138.96v2.64h4.77v-2.64h-4.77ZM133.13,140.9h-3.14v-1.23h3.14v1.23ZM134.42,142.46h-5.75v5.42h.81v-.52h4.12v.52h.81v-5.42ZM129.49,146.58v-1.36h1.66v1.36h-1.66ZM131.92,146.58v-1.36h1.69v1.36h-1.69ZM129.49,144.52v-1.33h1.66v1.33h-1.66ZM131.92,143.19h1.69v1.33h-1.69v-1.33ZM127.19,145.77c.54,0,.83-.29.83-.88v-6.11h-1.54v-1.94h-.73v1.94h-1.56v7.09h.71v-6.34h.86v8.29h.73v-2.12.06h.71ZM126.49,139.54h.83v5.21c0,.21-.12.33-.36.33l-.48-.02v-5.52Z"/>
  <path d="M144.71,145.65v1.02h-5.69c0-.25.04-.49.12-.73.15-.39.39-.77.71-1.15.32-.38.77-.8,1.38-1.29.93-.78,1.55-1.39,1.88-1.84.33-.44.5-.86.5-1.27s-.16-.76-.46-1.04c-.29-.29-.68-.44-1.14-.44-.52,0-.93.16-1.23.46s-.46.73-.46,1.27l-1.08-.12c.07-.8.34-1.42.83-1.83.48-.43,1.14-.65,1.96-.65s1.46.23,1.94.69c.48.46.73,1.02.73,1.69,0,.35-.07.69-.21,1.02-.14.33-.38.69-.71,1.06-.32.36-.85.86-1.6,1.5-.64.53-1.05.89-1.23,1.08-.18.2-.33.39-.44.56h4.21Z"/>
  <path class="cls-6" d="M80,43.33v-9.6"/>
  <path class="cls-7" d="M80,28.4v5.34M78,33.74l2-5.34,2,5.34"/>
  <path class="cls-6" d="M.67,86h158.67v25.2H.67v-25.2Z"/>
  <path d="M42.68,93.5c-1.39,1.52-3.14,2.79-5.25,3.81l.42.75c2.12-1.06,3.83-2.34,5.14-3.77,1.42,1.52,3.11,2.75,5.11,3.71l.44-.77c-1.98-.91-3.71-2.14-5.23-3.73h-.62ZM39.64,97.29v.84h2.92v2.08h-3.48v.83h3.48v2.21h-4.56v.85h10v-.85h-4.56v-2.21h3.48v-.83h-3.48v-2.08h2.92v-.84h-6.71Z"/>
  <path d="M50.53,93.66l-.59.56c.84.69,1.52,1.31,2,1.9l.62-.61c-.56-.62-1.25-1.23-2.04-1.86ZM57.49,104.25h2.75l.21-.86c-.31.02-.77.02-1.33.04-.61.02-1.17.02-1.73.02-.94,0-1.71,0-2.33-.02-.71-.02-1.23-.12-1.61-.29-.33-.14-.62-.39-.91-.75-.11-.11-.19-.21-.29-.27v-4.5h-2.52v.79h1.73v3.65c-.5.23-1.06.83-1.71,1.85l.64.59c.67-1.11,1.15-1.67,1.42-1.67.14,0,.31.11.46.31.38.42.79.73,1.27.88.48.12,1.08.21,1.85.21.75.02,1.46.02,2.11.02ZM53.07,94.71v.79h1.59c-.4.85-.84,1.58-1.31,2.14l.19.79h2.77v1.44h-3.33v.81h3.33v2.23h.83v-2.23h3.12v-.81h-3.12v-1.44h2.61v-.79h-2.61v-1.42h-.83v1.42h-1.94c.44-.62.83-1.33,1.21-2.14h4.54v-.79h-4.21c.14-.38.27-.73.39-1.12l-.81-.21c-.14.46-.31.91-.48,1.33h-1.94Z"/>
  <path d="M67.35,95.5l-.71.33c.25.44.48.92.73,1.44h-1.83v.83h6.69v-.83h-1.94c.27-.48.52-1.02.75-1.62l-.81-.29c-.25.69-.52,1.31-.86,1.92h-1.17c-.27-.64-.54-1.23-.85-1.77ZM68.93,93.39l-.89.14c.12.29.27.62.41,1h-2.64v.79h6.21v-.79h-2.69c-.14-.41-.27-.81-.39-1.14ZM62.93,104.35c.71,0,1.08-.33,1.08-1.04v-3.54c.34-.17.67-.33,1-.5v-.88c-.33.17-.66.33-1,.5v-2.29h.98v-.83h-.98v-2.27h-.89v2.27h-1.46v.83h1.46v2.67c-.56.23-1.12.39-1.69.54l.23.88c.48-.17.98-.36,1.46-.54v2.96c0,.31-.17.46-.48.46-.29,0-.6-.02-.91-.04l.16.83h1.04ZM67.87,98.44c-.12.33-.27.66-.44,1.02h-2.06v.86h1.61c-.25.46-.52.91-.86,1.41.83.34,1.62.65,2.36,1-.75.42-1.84.75-3.23,1l.36.79c1.73-.33,2.98-.81,3.77-1.38.96.46,1.79.89,2.5,1.33l.48-.69c-.75-.44-1.54-.85-2.38-1.23.56-.61.94-1.38,1.12-2.25h1.31v-.86h-4.11c.14-.29.27-.61.39-.94l-.83-.08ZM70.28,100.31c-.19.77-.56,1.39-1.11,1.89-.64-.29-1.31-.56-2-.83.23-.34.46-.69.67-1.06h2.44Z"/>
  <path d="M76.89,98.06v.77h6.5v-.77h-6.5ZM76.03,100.02v.79h2.62c-.84,1.35-1.54,2.19-2.06,2.5-.06.02-.11.06-.19.08l.19.73c2.27-.15,4.35-.36,6.25-.61.25.29.46.61.66.92l.69-.48c-.52-.77-1.29-1.69-2.27-2.73l-.64.4c.35.41.71.81,1.04,1.21-1.54.23-3.1.39-4.69.5.56-.5,1.21-1.36,1.94-2.52h4.61v-.79h-8.14ZM82.72,94.75v1.39h-7.06v-1.39h7.06ZM75.66,96.91h7.89v-2.98h-8.73v3.98c-.02,2.42-.44,4.38-1.27,5.9l.62.58c.98-1.81,1.48-3.98,1.48-6.48v-1Z"/>
  <path d="M91.14,105.79c-.58-.74-1.08-1.59-1.48-2.56-.41-.98-.61-2-.61-3.06,0-.93.15-1.82.46-2.69.34-.98.89-1.96,1.62-2.94h.75c-.47.81-.79,1.39-.94,1.73-.24.54-.43,1.11-.56,1.69-.16.74-.25,1.47-.25,2.21,0,1.88.59,3.75,1.75,5.62h-.75Z"/>
  <path d="M96.19,103.27v-2.06h-3.73v-.96l3.91-5.56h.88v5.56h1.17v.96h-1.17v2.06h-1.06ZM96.19,100.25v-3.88l-2.69,3.88h2.69Z"/>
  <path d="M99.49,99.04c0-1.01.11-1.83.31-2.46s.51-1.11.92-1.44c.41-.33.94-.5,1.56-.5.47,0,.88.1,1.23.29.34.18.63.45.86.79.22.35.39.77.52,1.27.14.5.21,1.18.21,2.04,0,1-.11,1.81-.31,2.44-.21.62-.52,1.09-.94,1.44-.41.34-.93.5-1.56.5-.82,0-1.47-.3-1.94-.89-.57-.71-.86-1.86-.86-3.48ZM100.58,99.04c0,1.41.16,2.34.48,2.81.33.46.74.69,1.23.69s.89-.23,1.23-.69c.34-.47.5-1.41.5-2.81s-.16-2.35-.5-2.81c-.33-.47-.74-.71-1.23-.71s-.88.2-1.17.61c-.36.53-.54,1.5-.54,2.91Z"/>
  <path d="M106.33,101.29l1-.1c.09.47.24.82.48,1.04.25.21.57.31.96.31.32,0,.59-.07.84-.21.25-.15.45-.36.6-.61.17-.25.3-.58.4-1,.11-.41.16-.84.16-1.29,0-.04,0-.11-.02-.21-.21.34-.5.61-.86.81-.36.21-.76.31-1.19.31-.71,0-1.31-.25-1.81-.77-.49-.51-.73-1.19-.73-2.04s.25-1.57.77-2.1c.51-.53,1.16-.79,1.94-.79.55,0,1.06.16,1.52.46.46.29.8.72,1.04,1.27.25.55.38,1.36.38,2.41s-.12,1.98-.36,2.62c-.24.66-.59,1.16-1.06,1.5-.47.34-1.03.5-1.66.5-.67,0-1.22-.19-1.65-.56-.41-.38-.66-.89-.75-1.56ZM110.65,97.5c0-.61-.16-1.09-.5-1.44-.32-.36-.7-.54-1.14-.54-.47,0-.89.2-1.23.58-.35.38-.52.87-.52,1.48,0,.54.16.99.48,1.33.33.34.74.5,1.23.5s.9-.16,1.21-.5c.32-.34.48-.82.48-1.41Z"/>
  <path d="M118.32,96.79l-1.06.09c-.08-.42-.22-.72-.39-.92-.28-.29-.62-.44-1.04-.44-.35,0-.64.09-.89.27-.34.25-.6.61-.79,1.06-.18.46-.28,1.12-.29,1.98.25-.38.55-.65.92-.83.38-.2.76-.29,1.17-.29.71,0,1.3.26,1.79.77.5.52.75,1.18.75,2,0,.54-.12,1.05-.35,1.52-.24.46-.56.81-.96,1.06-.41.23-.86.35-1.38.35-.88,0-1.59-.32-2.14-.96-.56-.65-.83-1.72-.83-3.21,0-1.65.3-2.86.91-3.62.53-.65,1.25-.98,2.17-.98.67,0,1.21.2,1.64.58.43.38.7.9.79,1.56ZM114.01,100.48c0,.38.07.73.23,1.06.15.32.36.57.64.75.28.17.57.25.88.25.44,0,.82-.17,1.14-.52.32-.36.48-.86.48-1.48s-.16-1.06-.48-1.39c-.3-.34-.7-.52-1.19-.52s-.88.18-1.21.52c-.33.33-.5.78-.5,1.33Z"/>
  <path d="M120.5,105.79h-.75c1.16-1.88,1.75-3.75,1.75-5.62,0-.73-.09-1.46-.25-2.19-.14-.58-.33-1.14-.56-1.69-.16-.34-.47-.93-.94-1.75h.75c.73.98,1.27,1.95,1.62,2.94.3.87.46,1.76.46,2.69,0,1.06-.2,2.08-.61,3.06-.41.97-.89,1.82-1.48,2.56Z"/>
  <path class="cls-6" d="M.67,43.33h158.67v25.2H.67v-25.2Z"/>
  <path d="M42.68,50.83c-1.39,1.52-3.14,2.79-5.25,3.81l.42.75c2.12-1.06,3.83-2.33,5.14-3.77,1.42,1.52,3.11,2.75,5.11,3.71l.44-.77c-1.98-.92-3.71-2.15-5.23-3.73h-.62ZM39.64,54.62v.83h2.92v2.08h-3.48v.84h3.48v2.21h-4.56v.86h10v-.86h-4.56v-2.21h3.48v-.84h-3.48v-2.08h2.92v-.83h-6.71Z"/>
  <path d="M50.53,51l-.59.56c.84.69,1.52,1.31,2,1.89l.62-.61c-.56-.62-1.25-1.23-2.04-1.85ZM57.49,61.58h2.75l.21-.86c-.31.02-.77.02-1.33.04-.61.02-1.17.02-1.73.02-.94,0-1.71,0-2.33-.02-.71-.02-1.23-.12-1.61-.29-.33-.14-.62-.39-.91-.75-.11-.1-.19-.21-.29-.27v-4.5h-2.52v.79h1.73v3.64c-.5.23-1.06.83-1.71,1.86l.64.58c.67-1.11,1.15-1.67,1.42-1.67.14,0,.31.11.46.31.38.42.79.73,1.27.88.48.12,1.08.21,1.85.21.75.02,1.46.02,2.11.02ZM53.07,52.04v.79h1.59c-.4.86-.84,1.58-1.31,2.14l.19.79h2.77v1.44h-3.33v.81h3.33v2.23h.83v-2.23h3.12v-.81h-3.12v-1.44h2.61v-.79h-2.61v-1.41h-.83v1.41h-1.94c.44-.62.83-1.33,1.21-2.14h4.54v-.79h-4.21c.14-.38.27-.73.39-1.12l-.81-.21c-.14.46-.31.92-.48,1.33h-1.94Z"/>
  <path d="M67.35,52.83l-.71.33c.25.44.48.92.73,1.44h-1.83v.84h6.69v-.84h-1.94c.27-.48.52-1.02.75-1.62l-.81-.29c-.25.69-.52,1.31-.86,1.91h-1.17c-.27-.64-.54-1.23-.85-1.77ZM68.93,50.73l-.89.15c.12.29.27.62.41,1h-2.64v.79h6.21v-.79h-2.69c-.14-.42-.27-.81-.39-1.15ZM62.93,61.69c.71,0,1.08-.34,1.08-1.04v-3.54c.34-.16.67-.33,1-.5v-.88c-.33.17-.66.34-1,.5v-2.29h.98v-.84h-.98v-2.27h-.89v2.27h-1.46v.84h1.46v2.66c-.56.23-1.12.4-1.69.54l.23.88c.48-.17.98-.36,1.46-.54v2.96c0,.31-.17.46-.48.46-.29,0-.6-.02-.91-.04l.16.84h1.04ZM67.87,55.77c-.12.33-.27.67-.44,1.02h-2.06v.86h1.61c-.25.46-.52.92-.86,1.42.83.33,1.62.64,2.36,1-.75.41-1.84.75-3.23,1l.36.79c1.73-.33,2.98-.81,3.77-1.38.96.46,1.79.9,2.5,1.34l.48-.69c-.75-.44-1.54-.86-2.38-1.23.56-.61.94-1.38,1.12-2.25h1.31v-.86h-4.11c.14-.29.27-.6.39-.94l-.83-.08ZM70.28,57.64c-.19.77-.56,1.39-1.11,1.89-.64-.29-1.31-.56-2-.83.23-.33.46-.69.67-1.06h2.44Z"/>
  <path d="M76.89,55.39v.77h6.5v-.77h-6.5ZM76.03,57.35v.79h2.62c-.84,1.36-1.54,2.19-2.06,2.5-.06.02-.11.06-.19.08l.19.73c2.27-.14,4.35-.36,6.25-.61.25.29.46.61.66.92l.69-.48c-.52-.77-1.29-1.69-2.27-2.73l-.64.39c.35.42.71.81,1.04,1.21-1.54.23-3.1.4-4.69.5.56-.5,1.21-1.35,1.94-2.52h4.61v-.79h-8.14ZM82.72,52.08v1.39h-7.06v-1.39h7.06ZM75.66,54.25h7.89v-2.98h-8.73v3.98c-.02,2.41-.44,4.38-1.27,5.89l.62.58c.98-1.81,1.48-3.98,1.48-6.48v-1Z"/>
  <path d="M91.14,63.12c-.58-.74-1.08-1.59-1.48-2.56-.41-.98-.61-2.01-.61-3.06,0-.93.15-1.82.46-2.69.34-.98.89-1.96,1.62-2.94h.75c-.47.8-.79,1.38-.94,1.73-.24.54-.43,1.11-.56,1.69-.16.74-.25,1.48-.25,2.21,0,1.88.59,3.75,1.75,5.62h-.75Z"/>
  <path d="M96.19,60.6v-2.06h-3.73v-.96l3.91-5.56h.88v5.56h1.17v.96h-1.17v2.06h-1.06ZM96.19,57.58v-3.88l-2.69,3.88h2.69Z"/>
  <path d="M99.49,56.37c0-1.01.11-1.84.31-2.46s.51-1.1.92-1.44c.41-.33.94-.5,1.56-.5.47,0,.88.1,1.23.29.34.18.63.45.86.79.22.35.39.77.52,1.27.14.5.21,1.18.21,2.04,0,1-.11,1.81-.31,2.44-.21.61-.52,1.09-.94,1.44-.41.33-.93.5-1.56.5-.82,0-1.47-.3-1.94-.9-.57-.71-.86-1.86-.86-3.48ZM100.58,56.37c0,1.41.16,2.34.48,2.81.33.46.74.69,1.23.69s.89-.23,1.23-.69c.34-.47.5-1.41.5-2.81s-.16-2.36-.5-2.81c-.33-.47-.74-.71-1.23-.71s-.88.2-1.17.61c-.36.53-.54,1.5-.54,2.92Z"/>
  <path d="M106.33,58.62l1-.11c.09.47.24.82.48,1.04.25.21.57.31.96.31.32,0,.59-.07.84-.21.25-.15.45-.35.6-.6.17-.25.3-.59.4-1,.11-.42.16-.84.16-1.29,0-.04,0-.11-.02-.21-.21.33-.5.6-.86.81-.36.21-.76.31-1.19.31-.71,0-1.31-.26-1.81-.77-.49-.51-.73-1.19-.73-2.04s.25-1.57.77-2.11c.51-.53,1.16-.79,1.94-.79.55,0,1.06.16,1.52.46.46.29.8.72,1.04,1.27.25.56.38,1.36.38,2.42s-.12,1.97-.36,2.62c-.24.66-.59,1.16-1.06,1.5-.47.33-1.03.5-1.66.5-.67,0-1.22-.19-1.65-.56-.41-.38-.66-.9-.75-1.56ZM110.65,54.83c0-.61-.16-1.09-.5-1.44-.32-.36-.7-.54-1.14-.54-.47,0-.89.2-1.23.59-.35.38-.52.87-.52,1.48,0,.54.16.99.48,1.34.33.33.74.5,1.23.5s.9-.17,1.21-.5c.32-.34.48-.82.48-1.42Z"/>
  <path d="M118.32,54.12l-1.06.08c-.08-.42-.22-.72-.39-.92-.28-.29-.62-.44-1.04-.44-.35,0-.64.09-.89.27-.34.25-.6.6-.79,1.06-.18.46-.28,1.12-.29,1.98.25-.38.55-.65.92-.83.38-.19.76-.29,1.17-.29.71,0,1.3.26,1.79.77.5.52.75,1.18.75,2,0,.54-.12,1.05-.35,1.52-.24.46-.56.81-.96,1.06-.41.23-.86.36-1.38.36-.88,0-1.59-.32-2.14-.96-.56-.65-.83-1.72-.83-3.21,0-1.65.3-2.86.91-3.62.53-.65,1.25-.98,2.17-.98.67,0,1.21.2,1.64.59.43.38.7.89.79,1.56ZM114.01,57.81c0,.38.07.73.23,1.06.15.32.36.57.64.75.28.16.57.25.88.25.44,0,.82-.17,1.14-.52.32-.36.48-.85.48-1.48s-.16-1.06-.48-1.4c-.3-.34-.7-.52-1.19-.52s-.88.18-1.21.52c-.33.34-.5.78-.5,1.34Z"/>
  <path d="M120.5,63.12h-.75c1.16-1.88,1.75-3.75,1.75-5.62,0-.73-.09-1.46-.25-2.19-.14-.59-.33-1.15-.56-1.69-.16-.34-.47-.93-.94-1.75h.75c.73.97,1.27,1.95,1.62,2.94.3.86.46,1.76.46,2.69,0,1.05-.2,2.08-.61,3.06-.41.97-.89,1.82-1.48,2.56Z"/>
  <path class="cls-6" d="M.67.67h158.67v25.2H.67V.67Z"/>
  <path d="M42.68,8.16c-1.39,1.52-3.14,2.79-5.25,3.81l.42.75c2.12-1.06,3.83-2.33,5.14-3.77,1.42,1.52,3.11,2.75,5.11,3.71l.44-.77c-1.98-.92-3.71-2.14-5.23-3.73h-.62ZM39.64,11.96v.83h2.92v2.09h-3.48v.83h3.48v2.21h-4.56v.86h10v-.86h-4.56v-2.21h3.48v-.83h-3.48v-2.09h2.92v-.83h-6.71Z"/>
  <path d="M50.53,8.33l-.59.56c.84.69,1.52,1.31,2,1.89l.62-.6c-.56-.62-1.25-1.23-2.04-1.86ZM57.49,18.91h2.75l.21-.85c-.31.02-.77.02-1.33.04-.61.02-1.17.02-1.73.02-.94,0-1.71,0-2.33-.02-.71-.02-1.23-.12-1.61-.29-.33-.15-.62-.4-.91-.75-.11-.11-.19-.21-.29-.27v-4.5h-2.52v.79h1.73v3.64c-.5.23-1.06.84-1.71,1.86l.64.58c.67-1.1,1.15-1.66,1.42-1.66.14,0,.31.1.46.31.38.41.79.73,1.27.88.48.12,1.08.21,1.85.21.75.02,1.46.02,2.11.02ZM53.07,9.37v.79h1.59c-.4.86-.84,1.59-1.31,2.15l.19.79h2.77v1.44h-3.33v.81h3.33v2.23h.83v-2.23h3.12v-.81h-3.12v-1.44h2.61v-.79h-2.61v-1.42h-.83v1.42h-1.94c.44-.62.83-1.34,1.21-2.15h4.54v-.79h-4.21c.14-.38.27-.73.39-1.12l-.81-.21c-.14.46-.31.92-.48,1.34h-1.94Z"/>
  <path d="M67.35,10.16l-.71.34c.25.44.48.91.73,1.44h-1.83v.83h6.69v-.83h-1.94c.27-.48.52-1.02.75-1.62l-.81-.29c-.25.69-.52,1.31-.86,1.92h-1.17c-.27-.65-.54-1.23-.85-1.77ZM68.93,8.06l-.89.14c.12.29.27.62.41,1h-2.64v.79h6.21v-.79h-2.69c-.14-.42-.27-.81-.39-1.14ZM62.93,19.02c.71,0,1.08-.33,1.08-1.04v-3.54c.34-.17.67-.34,1-.5v-.88c-.33.16-.66.33-1,.5v-2.29h.98v-.83h-.98v-2.27h-.89v2.27h-1.46v.83h1.46v2.67c-.56.23-1.12.39-1.69.54l.23.88c.48-.16.98-.35,1.46-.54v2.96c0,.31-.17.46-.48.46-.29,0-.6-.02-.91-.04l.16.83h1.04ZM67.87,13.1c-.12.34-.27.67-.44,1.02h-2.06v.85h1.61c-.25.46-.52.92-.86,1.42.83.33,1.62.64,2.36,1-.75.42-1.84.75-3.23,1l.36.79c1.73-.34,2.98-.81,3.77-1.38.96.46,1.79.89,2.5,1.33l.48-.69c-.75-.44-1.54-.86-2.38-1.23.56-.6.94-1.38,1.12-2.25h1.31v-.85h-4.11c.14-.29.27-.61.39-.94l-.83-.09ZM70.28,14.98c-.19.77-.56,1.4-1.11,1.9-.64-.29-1.31-.56-2-.84.23-.33.46-.69.67-1.06h2.44Z"/>
  <path d="M76.89,12.73v.77h6.5v-.77h-6.5ZM76.03,14.69v.79h2.62c-.84,1.36-1.54,2.19-2.06,2.5-.06.02-.11.06-.19.09l.19.73c2.27-.14,4.35-.35,6.25-.6.25.29.46.6.66.91l.69-.48c-.52-.77-1.29-1.69-2.27-2.73l-.64.39c.35.42.71.81,1.04,1.21-1.54.23-3.1.39-4.69.5.56-.5,1.21-1.36,1.94-2.52h4.61v-.79h-8.14ZM82.72,9.41v1.4h-7.06v-1.4h7.06ZM75.66,11.58h7.89v-2.98h-8.73v3.98c-.02,2.42-.44,4.38-1.27,5.89l.62.59c.98-1.81,1.48-3.98,1.48-6.48v-1Z"/>
  <path d="M91.14,20.46c-.58-.74-1.08-1.59-1.48-2.56-.41-.98-.61-2-.61-3.06,0-.93.15-1.82.46-2.69.34-.98.89-1.96,1.62-2.94h.75c-.47.81-.79,1.39-.94,1.73-.24.54-.43,1.1-.56,1.69-.16.74-.25,1.47-.25,2.21,0,1.88.59,3.75,1.75,5.62h-.75Z"/>
  <path d="M96.8,17.94h-1.06v-6.73c-.25.25-.58.5-1,.75-.42.24-.79.41-1.11.52v-1.02c.59-.26,1.09-.59,1.54-.98.44-.4.75-.79.94-1.16h.69v8.63Z"/>
  <path d="M99.49,13.71c0-1.01.11-1.83.31-2.46s.51-1.11.92-1.44c.41-.34.94-.5,1.56-.5.47,0,.88.1,1.23.29.34.18.63.45.86.79.22.35.39.77.52,1.27.14.5.21,1.18.21,2.04,0,1-.11,1.81-.31,2.44-.21.61-.52,1.09-.94,1.44-.41.33-.93.5-1.56.5-.82,0-1.47-.3-1.94-.89-.57-.71-.86-1.87-.86-3.48ZM100.58,13.71c0,1.41.16,2.34.48,2.81.33.46.74.69,1.23.69s.89-.23,1.23-.69c.34-.47.5-1.41.5-2.81s-.16-2.36-.5-2.81c-.33-.47-.74-.71-1.23-.71s-.88.2-1.17.6c-.36.53-.54,1.5-.54,2.92Z"/>
  <path d="M106.17,13.71c0-1.01.1-1.83.31-2.46.21-.62.51-1.11.91-1.44.42-.34.94-.5,1.56-.5.47,0,.88.1,1.23.29.34.18.63.45.86.79.22.35.39.77.52,1.27.14.5.21,1.18.21,2.04,0,1-.1,1.81-.31,2.44-.21.61-.52,1.09-.94,1.44-.41.33-.93.5-1.56.5-.82,0-1.47-.3-1.94-.89-.57-.71-.85-1.87-.85-3.48ZM107.25,13.71c0,1.41.16,2.34.48,2.81.33.46.74.69,1.23.69s.9-.23,1.23-.69c.33-.47.5-1.41.5-2.81s-.17-2.36-.5-2.81c-.33-.47-.75-.71-1.23-.71s-.88.2-1.16.6c-.37.53-.54,1.5-.54,2.92Z"/>
  <path d="M112.84,13.71c0-1.01.11-1.83.31-2.46.21-.62.51-1.11.92-1.44.42-.34.94-.5,1.56-.5.47,0,.88.1,1.23.29.34.18.63.45.85.79.22.35.4.77.52,1.27.13.5.21,1.18.21,2.04,0,1-.11,1.81-.31,2.44-.21.61-.52,1.09-.94,1.44-.41.33-.93.5-1.56.5-.82,0-1.47-.3-1.94-.89-.57-.71-.86-1.87-.86-3.48ZM113.93,13.71c0,1.41.16,2.34.48,2.81.34.46.74.69,1.23.69s.89-.23,1.23-.69c.33-.47.5-1.41.5-2.81s-.17-2.36-.5-2.81c-.34-.47-.75-.71-1.23-.71s-.88.2-1.17.6c-.36.53-.54,1.5-.54,2.92Z"/>
  <path d="M120.5,20.46h-.75c1.16-1.88,1.75-3.75,1.75-5.62,0-.73-.09-1.46-.25-2.19-.14-.58-.33-1.14-.56-1.69-.16-.34-.47-.93-.94-1.75h.75c.73.97,1.27,1.95,1.62,2.94.3.86.46,1.76.46,2.69,0,1.06-.2,2.08-.61,3.06-.41.97-.89,1.82-1.48,2.56Z"/>
  <path class="cls-6" d="M80,86v-9.6"/>
  <path class="cls-7" d="M80,71.07v5.33M78,76.4l2-5.33,2,5.33"/>
  <path class="cls-6" d="M80,129.4v-10.33"/>
  <path class="cls-7" d="M80,113.74v5.33M78,119.07l2-5.33,2,5.33"/>
  <path class="cls-6" d="M80,172.07v-9.6"/>
  <path class="cls-7" d="M80,157.14v5.34M78,162.47l2-5.34,2,5.34"/>
</svg>